<?xml version="1.0" encoding="utf-8"?><!-- Generator: Adobe Illustrator 27.5.0, SVG Export Plug-In . SVG Version: 6.00 Build 0)  -->
<svg version="1.1" xmlns="http://www.w3.org/2000/svg" xmlns:xlink="http://www.w3.org/1999/xlink"
    x="0px" y="0px" viewBox="0 0 500 500" style="enable-background:new 0 0 500 500;"
    xml:space="preserve">
<g id="Background_complete">
	<g>
		<g>
			<g>
				<g>
					<path style="fill:#F0F0F0;" d="M444.708,349.145H263.962c-3.232,0-5.862-2.63-5.862-5.862V80.009
						c0-3.232,2.63-5.862,5.862-5.862h180.746c3.232,0,5.862,2.629,5.862,5.862v263.273
						C450.57,346.515,447.94,349.145,444.708,349.145z M263.962,74.397c-3.095,0-5.612,2.518-5.612,5.612v263.273
						c0,3.095,2.518,5.612,5.612,5.612h180.746c3.095,0,5.612-2.518,5.612-5.612V80.009c0-3.094-2.518-5.612-5.612-5.612H263.962z" />
				</g>
			</g>
            <g>
				<g>
					<path style="fill:#F0F0F0;" d="M236.28,349.145H55.534c-3.232,0-5.862-2.63-5.862-5.862V80.009
						c0-3.232,2.629-5.862,5.862-5.862H236.28c3.232,0,5.862,2.629,5.862,5.862v263.273
						C242.143,346.515,239.513,349.145,236.28,349.145z M55.534,74.397c-3.094,0-5.612,2.518-5.612,5.612v263.273
						c0,3.095,2.518,5.612,5.612,5.612H236.28c3.095,0,5.612-2.518,5.612-5.612V80.009c0-3.094-2.518-5.612-5.612-5.612H55.534z" />
				</g>
			</g>
		</g>
        <g>
			<g>
				<rect x="0.788" y="410.214" style="fill:#E0E0E0;" width="500" height="0.25" />
			</g>
		</g>
	</g>
    <g>
		<g>
			<path style="fill:#F0F0F0;" d="M181.218,99.549h31.571c0.828,0,1.5-0.672,1.5-1.5v-7.127c0-0.828-0.672-1.5-1.5-1.5h-31.571
				c-0.829,0-1.5,0.672-1.5,1.5v7.127C179.718,98.877,180.389,99.549,181.218,99.549z" />
		</g>
        <path style="fill:#F0F0F0;" d="M162.361,112.464h31.571c0.828,0,1.5-0.672,1.5-1.5v-7.127c0-0.828-0.672-1.5-1.5-1.5h-31.571
			c-0.828,0-1.5,0.672-1.5,1.5v7.127C160.861,111.793,161.533,112.464,162.361,112.464z" />
	</g>
    <g>
		<path style="fill:#F0F0F0;" d="M96.967,251.449H65.396c-0.828,0-1.5-0.672-1.5-1.5v-7.127c0-0.828,0.672-1.5,1.5-1.5h31.571
			c0.828,0,1.5,0.672,1.5,1.5v7.127C98.467,250.778,97.795,251.449,96.967,251.449z" />
        <path style="fill:#F0F0F0;" d="M115.824,264.365H84.253c-0.828,0-1.5-0.672-1.5-1.5v-7.127c0-0.828,0.672-1.5,1.5-1.5h31.571
			c0.828,0,1.5,0.672,1.5,1.5v7.127C117.324,263.694,116.652,264.365,115.824,264.365z" />
	</g>
    <g>
		<g>
			<path style="fill:#F0F0F0;" d="M401.228,261.663h-31.571c-0.828,0-1.5-0.672-1.5-1.5v-7.127c0-0.829,0.672-1.5,1.5-1.5h31.571
				c0.828,0,1.5,0.671,1.5,1.5v7.127C402.728,260.991,402.057,261.663,401.228,261.663z" />
            <path style="fill:#F0F0F0;" d="M438.942,261.663h-31.571c-0.828,0-1.5-0.672-1.5-1.5v-7.127c0-0.829,0.672-1.5,1.5-1.5h31.571
				c0.829,0,1.5,0.671,1.5,1.5v7.127C440.442,260.991,439.771,261.663,438.942,261.663z" />
		</g>
        <path style="fill:#F0F0F0;" d="M420.085,274.579h-31.571c-0.828,0-1.5-0.672-1.5-1.5v-7.127c0-0.828,0.672-1.5,1.5-1.5h31.571
			c0.828,0,1.5,0.672,1.5,1.5v7.127C421.585,273.907,420.914,274.579,420.085,274.579z" />
	</g>
    <g>
		<rect x="421.547" y="324.25" style="fill:#E6E6E6;" width="36.068" height="85.964" />
        <rect x="344.045" y="324.25" style="fill:#F5F5F5;" width="85.964" height="85.964" />
        <rect x="382.906" y="324.25" style="fill:#FAFAFA;" width="10.621" height="85.714" />
	</g>
    <g>
		<rect x="125.365" y="324.25" style="fill:#E6E6E6;" width="36.068" height="85.964" />
        <rect x="47.863" y="324.25" style="fill:#F5F5F5;" width="85.964" height="85.964" />
        <rect x="86.724" y="324.25" style="fill:#FAFAFA;" width="10.621" height="85.714" />
	</g>
    <g>
		<rect x="307.977" y="369.975" style="fill:#E6E6E6;" width="36.068" height="40.239" />
        <rect x="230.474" y="369.975" style="fill:#F5F5F5;" width="85.964" height="40.239" />
        <rect x="269.335" y="369.975" style="fill:#FAFAFA;" width="10.621" height="40.122" />
	</g>
    <g>
		<rect x="142.22" y="284.011" style="fill:#E6E6E6;" width="36.068" height="40.239" />
        <rect x="64.718" y="284.011" style="fill:#F5F5F5;" width="85.964" height="40.239" />
        <rect x="103.579" y="284.011" style="fill:#FAFAFA;" width="10.621" height="40.122" />
	</g>
    <g>
		<rect x="276.928" y="93.416" style="fill:#E6E6E6;" width="79.021" height="79.021" />

        <rect x="280.928" y="97.417"
            transform="matrix(-1.836970e-16 1 -1 -1.836970e-16 449.3652 -183.5112)"
            style="fill:#FAFAFA;" width="71.021" height="71.02" />
        <path style="fill:#F0F0F0;"
            d="M311.678,152.309c0,0,13.041-26.737,40.27-27.273v43.402h-35.51L311.678,152.309z" />
        <path style="fill:#F5F5F5;" d="M280.928,144.802c0,0,11.727-6.148,23.646-1.635c14.967,5.667,23.646,25.271,23.646,25.271h-47.292
			V144.802z" />
        <circle style="fill:#FFFFFF;" cx="305.292" cy="119.931" r="12.53" />
	</g>
    <g>
		<rect x="61.764" y="93.416" style="fill:#E6E6E6;" width="69.327" height="134.214" />

        <rect x="33.321" y="129.86"
            transform="matrix(-1.836970e-16 1 -1 -1.836970e-16 256.9512 64.0957)"
            style="fill:#FAFAFA;" width="126.214" height="61.327" />
        <circle style="fill:#FFFFFF;" cx="86.999" cy="136.526" r="12.53" />
        <path style="fill:#F0F0F0;"
            d="M77.229,223.63c0,0,15.521-74.63,49.862-81.331v81.331H96.428H77.229z" />
        <path style="fill:#F5F5F5;" d="M65.764,179.339c0,0,7.901-7.618,20.418-3.064c23.522,8.558,36.651,47.355,36.651,47.355H65.764
			V179.339z" />
	</g>
    <g>
		<g>
			<g>
				<g>
					
						<ellipse transform="matrix(0.9924 -0.1228 0.1228 0.9924 -13.0552 50.6431)"
                            style="fill:#E0E0E0;" cx="404.3" cy="131.228" rx="20.936" ry="20.936" />
				</g>
			</g>
		</g>
        <g>
			<g>
				<g>
					
						<ellipse transform="matrix(0.2279 -0.9737 0.9737 0.2279 184.3963 494.9881)"
                            style="fill:#FAFAFA;" cx="404.3" cy="131.228" rx="19.285" ry="19.285" />
				</g>
			</g>
		</g>
        <g>
			<g>
				<g>
					<g>
						<rect x="403.63" y="113.696" style="fill:#E0E0E0;" width="0.722"
                            height="4.022" />
					</g>
				</g>
			</g>
            <g>
				<g>
					<g>
						<rect x="403.63" y="144.635" style="fill:#E0E0E0;" width="0.722"
                            height="4.022" />
					</g>
				</g>
			</g>
		</g>
        <g>
			<g>
				<g>
					<g>
						<rect x="386.51" y="130.815" style="fill:#E0E0E0;" width="4.022"
                            height="0.722" />
					</g>
				</g>
			</g>
            <g>
				<g>
					<g>
						<rect x="417.449" y="130.815" style="fill:#E0E0E0;" width="4.022"
                            height="0.722" />
					</g>
				</g>
			</g>
		</g>
        <g>
			<g>
				<g>
					<g>
						
							<rect x="412.918" y="119.877"
                                transform="matrix(0.7072 -0.707 0.707 0.7072 36.4887 328.5789)"
                                style="fill:#E0E0E0;" width="4.022" height="0.722" />
					</g>
				</g>
			</g>
            <g>
				<g>
					<g>
						
							<rect x="391.041" y="141.754"
                                transform="matrix(0.7068 -0.7074 0.7074 0.7068 14.7013 319.7024)"
                                style="fill:#E0E0E0;" width="4.022" height="0.722" />
					</g>
				</g>
			</g>
		</g>
        <g>
			<g>
				<g>
					<g>
						
							<rect x="392.691" y="118.227"
                                transform="matrix(0.707 -0.7072 0.7072 0.707 30.1392 313.2175)"
                                style="fill:#E0E0E0;" width="0.722" height="4.022" />
					</g>
				</g>
			</g>
            <g>
				<g>
					<g>
						
							<rect x="414.568" y="140.104"
                                transform="matrix(0.7072 -0.707 0.707 0.7072 21.0226 334.9892)"
                                style="fill:#E0E0E0;" width="0.722" height="4.022" />
					</g>
				</g>
			</g>
		</g>
        <g>
			<g>
				<g>
					
						<rect x="406.843" y="128.665"
                            transform="matrix(0.3664 -0.9305 0.9305 0.3664 134.8576 462.6922)"
                            style="fill:#E0E0E0;" width="0.619" height="7.329" />
				</g>
			</g>
		</g>
        <g>
			<g>
				<g>
					<polygon style="fill:#E0E0E0;" points="404.3,131.486 393.052,131.486 393.052,130.867 403.681,130.867 403.681,122.136 
						404.3,122.136 					" />
				</g>
			</g>
		</g>
	</g>
</g>
    <g id="Background_simple" style="display:none;">
	<g style="display:inline;">
		<path style="fill:#407BFF;" d="M429.777,156.197c-2.09-23.725-11.822-46.267-28.418-63.35
			c-15.452-15.906-39.133-29.853-72.974-24.407c-77.526,12.475-45.825,131.563-146.951,104.94
			c-101.127-26.623-143.389,96.016-67.668,139.305c75.721,43.289,205.947,19.149,261.057-27.129
			C426.708,241.987,432.741,189.84,429.777,156.197z" />
        <path style="opacity:0.9;fill:#FFFFFF;" d="M429.777,156.197c-2.09-23.725-11.822-46.267-28.418-63.35
			c-15.452-15.906-39.133-29.853-72.974-24.407c-77.526,12.475-45.825,131.563-146.951,104.94
			c-101.127-26.623-143.389,96.016-67.668,139.305c75.721,43.289,205.947,19.149,261.057-27.129
			C426.708,241.987,432.741,189.84,429.777,156.197z" />
	</g>
</g>
    <g id="Shadow">
	<g>
		<g>
			<path style="fill:#F5F5F5;" d="M468.478,454.022c0,3.498-96.59,6.334-215.739,6.334S37,457.52,37,454.022
				c0-3.498,96.59-6.334,215.739-6.334S468.478,450.524,468.478,454.022z" />
		</g>
	</g>
</g>
    <g id="Mistery_Box">
	<g>
		<g>
			<polygon style="fill:#407BFF;"
                points="385.328,205.79 404.3,222.806 321.992,222.806 305.909,205.79 			" />
            <polygon style="opacity:0.5;"
                points="385.328,205.79 404.3,222.806 321.992,222.806 305.909,205.79 			" />
            <g>
				<rect x="305.909" y="205.79" style="fill:#407BFF;" width="79.456" height="79.456" />
                <rect x="305.909" y="205.79" style="opacity:0.2;" width="79.456" height="79.456" />
                <rect x="280.385" y="205.79" style="fill:#407BFF;" width="79.456" height="79.456" />
			</g>
            <polygon style="fill:#407BFF;"
                points="280.422,205.79 261.451,222.806 343.758,222.806 359.841,205.79 			" />
            <polygon style="opacity:0.3;fill:#FFFFFF;"
                points="280.422,205.79 261.451,222.806 343.758,222.806 359.841,205.79 			" />
		</g>
        <g>
			<path style="fill:#FFFFFF;" d="M321.408,233.166c7.407,0,12.437,4.367,12.437,11.552c0,7.793-5.527,11.221-12.934,11.221
				l-0.22,4.367h-5.473l-0.276-8.679h1.824c6.247,0,11.056-1.105,11.056-6.909c0-3.869-2.377-6.246-6.357-6.246
				c-3.924,0-6.411,2.21-6.411,6.08h-5.914C309.081,237.865,313.891,233.166,321.408,233.166z M317.87,272.522
				c-2.267,0-4.035-1.769-4.035-4.034c0-2.267,1.769-4.035,4.035-4.035c2.211,0,3.98,1.769,3.98,4.035
				C321.851,270.753,320.082,272.522,317.87,272.522z" />
		</g>
        <g>
			<g>
				<rect x="269.622" y="285.247" style="fill:#407BFF;" width="93.663" height="8.232" />
                <rect x="269.622" y="285.247" style="opacity:0.3;" width="93.663" height="8.232" />
                <rect x="363.285" y="285.247" style="fill:#407BFF;" width="34.789" height="8.232" />
                <rect x="363.285" y="285.247" style="opacity:0.5;" width="34.789" height="8.232" />
			</g>
            <rect x="325.969" y="293.478" style="fill:#263238;" width="5.645" height="154.891" />
            <rect x="325.969" y="293.478" style="opacity:0.2;fill:#FFFFFF;" width="5.645"
                height="154.891" />
            <polyline style="opacity:0.2;"
                points="331.614,297.333 325.969,299.667 325.969,293.478 331.614,293.478 331.614,297.333 			" />
            <path style="fill:#407BFF;" d="M356.389,453.381h-55.195v-0.029c0-4.491,3.641-8.131,8.131-8.131h38.932
				c4.491,0,8.131,3.64,8.131,8.131V453.381z" />
		</g>
	</g>
</g>
    <g id="Plant">
	<g>
		<g>
			<g>
				<g>
					<g>
						<g>
							<g>
								<g>
									<path style="fill:#407BFF;" d="M86.947,373.045c0,0,6.826-2.49,8.593,4.738c1.767,7.228,6.825,5.362,7.782,3.779
										c1.887-3.121,2.151-14.414-1.094-15.094C98.353,365.654,88.313,369.753,86.947,373.045z" />
								</g>
							</g>
						</g>
                        <g style="opacity:0.4;">
							<g>
								<g>
									<path d="M86.947,373.045c0,0,6.826-2.49,8.593,4.738c1.767,7.228,6.825,5.362,7.782,3.779
										c1.887-3.121,2.151-14.414-1.094-15.094C98.353,365.654,88.313,369.753,86.947,373.045z" />
								</g>
							</g>
						</g>
                        <g>
							<g>
								<g>
									<path style="fill:#407BFF;" d="M102.229,366.468c-8.006,0.116-10.124,7.146-11.41,13.343l-2.602-4.857l1.845,8.62
										c-0.198,0.942-0.405,1.812-0.643,2.568c-1.927,6.105-7.871,7.965-7.871,7.965s-0.359-2.479-0.675-5.961v-0.003l2.913-4.582
										l-3.166,1.33c-0.354-5.462-0.402-12.03,0.928-15.774c2.571-7.228,9.468-5.004,9.468-5.004L102.229,366.468z" />
								</g>
							</g>
						</g>
					</g>
                    <g>
						<g>
							<g>
								<g>
									<path style="fill:#407BFF;" d="M122.168,358.878c0,0-4.196-1.264-8.593,4.738c-4.237,5.783-5.926,6.462-8.798,4.213
										c-2.872-2.249-1.135-14.848,2.109-15.529C110.762,351.487,120.803,355.585,122.168,358.878z" />
								</g>
							</g>
						</g>
                        <g style="opacity:0.4;">
							<g>
								<g>
									<path d="M122.168,358.878c0,0-4.196-1.264-8.593,4.738c-4.237,5.783-5.926,6.462-8.798,4.213
										c-2.872-2.249-1.135-14.848,2.109-15.529C110.762,351.487,120.803,355.585,122.168,358.878z" />
								</g>
							</g>
						</g>
                        <g>
							<g>
								<g>
									<path style="fill:#407BFF;" d="M135.658,391.706c0,0-5.221-1.633-8.799-6.546l4.628-10.864l-6.346,7.912
										c-0.267-0.59-0.508-1.212-0.716-1.87c-2.751-8.712-2.188-27.625-18.005-27.854l15.725-3.587c0,0,9.844-3.176,13.511,7.141
										c0.935,2.624,1.393,6.223,1.557,10.129l-5.727-5.3c0,0,3.971,5.761,5.797,8.167
										C137.376,379.835,135.658,391.706,135.658,391.706z" />
								</g>
							</g>
						</g>
					</g>
                    <g>
						<g>
							<g>
								<g>
									<path style="fill:#407BFF;" d="M82.154,342.125c0,0,6.826-2.49,8.593,4.738c1.767,7.228,10.656,9.987,11.568,6.455
										c0.973-3.769-1.178-17.195-4.422-17.876C94.017,334.629,83.519,338.832,82.154,342.125z" />
								</g>
							</g>
						</g>
                        <g style="opacity:0.4;">
							<g>
								<g>
									<path d="M82.154,342.125c0,0,6.826-2.49,8.593,4.738c1.767,7.228,10.656,9.987,11.568,6.455
										c0.973-3.769-1.178-17.195-4.422-17.876C94.017,334.629,83.519,338.832,82.154,342.125z" />
								</g>
							</g>
						</g>
                        <g>
							<g>
								<g>
									<path style="fill:#407BFF;" d="M98.179,335.501c-12.931,0.188-15.099,13.01-16.964,22.445l-6.589-9.505
										c0.084,0.275,3.578,11.615,4.929,16.111c-3.046,7.941-10.893,10.401-10.893,10.401s-2.197-15.176-1.491-26.825
										c1.927-1.595,5.334-4.452,5.334-4.452l-5.05,1.25c0.255-2.137,0.646-4.065,1.207-5.643
										c3.667-10.314,13.514-7.139,13.514-7.139L98.179,335.501z" />
								</g>
							</g>
						</g>
					</g>
				</g>
			</g>
            <g>
				<path style="fill:#407BFF;" d="M103.323,398.651c-0.017,0-0.033-0.001-0.051-0.003c-0.247-0.028-0.426-0.251-0.398-0.498
					c4.478-39.849-6.741-73.449-6.855-73.783c-0.081-0.236,0.046-0.492,0.281-0.572c0.238-0.078,0.493,0.047,0.572,0.282
					c0.115,0.337,11.397,34.128,6.898,74.174C103.744,398.481,103.549,398.651,103.323,398.651z" />
			</g>
		</g>
        <rect x="86.105" y="395.75" style="fill:#263238;" width="34.609" height="4.846" />
        <rect x="86.105" y="395.75" style="opacity:0.2;fill:#FFFFFF;" width="34.609"
            height="4.846" />
        <path style="fill:#263238;" d="M115.132,400.596H91.513c-2.837,6.588-12.007,26.002-12.007,31.738
			c0,6.785,8.462,20.927,8.462,20.927c0,1.015,30.708,1.015,30.708,0c0,0,8.462-14.142,8.462-20.927
			C127.138,426.598,117.968,407.184,115.132,400.596z" />
	</g>
</g>
    <g id="Sspeech_Bubble">
	<g>
		<g>
			<circle style="fill:#407BFF;" cx="152.146" cy="109.244" r="21.046" />
		</g>
        <g style="opacity:0.7;">
			<circle style="fill:#FFFFFF;" cx="152.146" cy="109.244" r="21.046" />
		</g>
        <g>
			<path style="fill:#407BFF;" d="M152.146,130.723c-11.844,0-21.479-9.635-21.479-21.479c0-11.844,9.635-21.479,21.479-21.479
				c11.844,0,21.479,9.635,21.479,21.479C173.625,121.088,163.99,130.723,152.146,130.723z M152.146,88.631
				c-11.366,0-20.613,9.247-20.613,20.613s9.247,20.613,20.613,20.613c11.366,0,20.613-9.247,20.613-20.613
				S163.512,88.631,152.146,88.631z" />
		</g>
        <g>
			<g>
				<path style="fill:#407BFF;" d="M152.316,97.546c4.558,0,7.654,2.688,7.654,7.11c0,4.796-3.401,6.906-7.96,6.906l-0.136,2.688
					h-3.368l-0.17-5.341h1.122c3.844,0,6.804-0.68,6.804-4.252c0-2.381-1.463-3.844-3.912-3.844c-2.415,0-3.946,1.36-3.946,3.742
					h-3.64C144.73,100.437,147.69,97.546,152.316,97.546z M150.139,121.766c-1.395,0-2.484-1.089-2.484-2.483
					c0-1.395,1.089-2.484,2.484-2.484c1.361,0,2.45,1.089,2.45,2.484C152.589,120.678,151.5,121.766,150.139,121.766z" />
			</g>
		</g>
        <g>
			<path style="fill:#407BFF;" d="M165.314,125.662l6.863,3.412c0.36,0.179,0.752-0.178,0.607-0.553l-3.003-7.787
				C168.253,122.905,166.76,124.603,165.314,125.662z" />
		</g>
	</g>
</g>
    <g id="Character">
	<g>
		<g>
			<path style="fill:#407BFF;" d="M170.771,164c0.962,4.84,42.124,2.917,40.198-3.333c-0.321-1.042-0.957-2.08-1.497-3.242
				c-2.675-5.758-7.117-12.979-21.491-12.931C179.333,144.522,167.937,149.75,170.771,164z" />
            <g>
				<g>
					<g>
						<polygon style="fill:#FFC3BD;"
                            points="221.753,435.854 223.859,446.512 229.494,446.512 230.245,435.854 						" />
                        <g>
							<g>
								<path style="fill:#407BFF;" d="M228.751,445.16c0,0,1.068-1.32,2.424-0.87c1.355,0.451,3.129,2.67,3.129,2.67
									s7.35,2.357,9.335,2.481c1.985,0.124,3.722,1.241,4.466,5.086h-24.068c0,0-0.947-8.684-1.094-10.173
									c-0.147-1.489,2.21,0.372,2.21,0.372L228.751,445.16z" />
							</g>
						</g>
                        <g>
							<g>
								<g>
									<path d="M247.39,453.381c-1.447-0.014-2.888-0.028-4.335-0.043c-6.322-0.064-12.644-0.135-18.965-0.199
										c-0.241,0-0.241-0.376,0-0.369c0.426,0.007,0.858,0.007,1.284,0.014c0-0.014,0.007-0.036,0.014-0.05
										c0.908-2.008-0.142-4.058-1.958-5.087c-0.213-0.114-0.021-0.44,0.184-0.319c1.965,1.114,3.044,3.306,2.143,5.456
										c0.894,0.014,1.781,0.021,2.675,0.028c6.315,0.064,12.636,0.135,18.958,0.199
										C247.631,453.012,247.631,453.388,247.39,453.381z" />
								</g>
							</g>
						</g>
                        <g>
							<g>
								<g>
									<path style="fill:#FFFFFF;" d="M233.451,448.472c0.837-1.176,2.251-1.51,3.439-0.623c0.192,0.143,0.378-0.18,0.188-0.321
										c-1.363-1.018-3-0.576-3.948,0.757C232.991,448.479,233.313,448.666,233.451,448.472L233.451,448.472z" />
								</g>
							</g>
						</g>
                        <g>
							<g>
								<g>
									<path style="fill:#FFFFFF;" d="M235.525,449.098c0.837-1.176,2.251-1.51,3.439-0.623c0.192,0.143,0.378-0.18,0.188-0.321
										c-1.363-1.018-3-0.576-3.948,0.757C235.064,449.105,235.387,449.291,235.525,449.098L235.525,449.098z" />
								</g>
							</g>
						</g>
                        <g>
							<g>
								<g>
									<path style="fill:#FFFFFF;" d="M237.666,449.724c0.837-1.176,2.251-1.51,3.438-0.623c0.192,0.143,0.378-0.18,0.188-0.321
										c-1.363-1.018-3-0.576-3.948,0.757C237.206,449.731,237.528,449.917,237.666,449.724L237.666,449.724z" />
								</g>
							</g>
						</g>
					</g>
				</g>
                <g>
					<g>
						<polygon style="fill:#FFC3BD;"
                            points="171.34,435.93 172.509,446.512 178.144,446.512 179.832,435.93 						" />
                        <g>
							<g>
								<path style="fill:#407BFF;" d="M177.401,445.16c0,0,1.068-1.32,2.424-0.87c1.355,0.451,3.129,2.67,3.129,2.67
									s7.35,2.357,9.335,2.481c1.985,0.124,3.722,1.241,4.466,5.086h-24.068c0,0-0.947-8.684-1.094-10.173
									c-0.147-1.489,2.21,0.372,2.21,0.372L177.401,445.16z" />
							</g>
						</g>
                        <g>
							<g>
								<g>
									<path d="M196.039,453.381c-1.447-0.014-2.888-0.028-4.335-0.043c-6.322-0.064-12.644-0.135-18.965-0.199
										c-0.241,0-0.241-0.376,0-0.369c0.426,0.007,0.858,0.007,1.284,0.014c0-0.014,0.007-0.036,0.014-0.05
										c0.908-2.008-0.142-4.058-1.958-5.087c-0.213-0.114-0.021-0.44,0.184-0.319c1.965,1.114,3.044,3.306,2.143,5.456
										c0.894,0.014,1.781,0.021,2.675,0.028c6.315,0.064,12.636,0.135,18.958,0.199
										C196.281,453.012,196.281,453.388,196.039,453.381z" />
								</g>
							</g>
						</g>
                        <g>
							<g>
								<g>
									<path style="fill:#FFFFFF;" d="M182.101,448.472c0.837-1.176,2.251-1.51,3.439-0.623c0.192,0.143,0.378-0.18,0.188-0.321
										c-1.363-1.018-3-0.576-3.948,0.757C181.64,448.479,181.963,448.666,182.101,448.472L182.101,448.472z" />
								</g>
							</g>
						</g>
                        <g>
							<g>
								<g>
									<path style="fill:#FFFFFF;" d="M184.174,449.098c0.837-1.176,2.251-1.51,3.439-0.623c0.192,0.143,0.378-0.18,0.188-0.321
										c-1.363-1.018-3-0.576-3.948,0.757C183.714,449.105,184.036,449.291,184.174,449.098L184.174,449.098z" />
								</g>
							</g>
						</g>
                        <g>
							<g>
								<g>
									<path style="fill:#FFFFFF;" d="M186.316,449.724c0.837-1.176,2.251-1.51,3.438-0.623c0.192,0.143,0.378-0.18,0.188-0.321
										c-1.363-1.018-3-0.576-3.948,0.757C185.855,449.731,186.178,449.917,186.316,449.724L186.316,449.724z" />
								</g>
							</g>
						</g>
					</g>
				</g>
                <path style="fill:#263238;" d="M219.878,436.229h12.434c1.076-16.012,4.12-69.069,1.715-95.325
					c1.73-36.429-3.837-84.787-3.837-84.787h-39.39c0,0,2.886,32.36,15.843,84.262C206.552,381.5,216.589,422.609,219.878,436.229z" />
                <path style="opacity:0.2;"
                    d="M204.518,331.656c7.121-29.085,0.868-66.801,0.868-66.801l-6.145,43.081L204.518,331.656z" />
                <polygon style="fill:#263238;"
                    points="218.396,435.917 219.309,440.642 233.567,440.581 233.575,435.854 				" />
                <path style="fill:#263238;" d="M169.566,436.688H182c4.43-16.472,13.329-69.433,14.754-95.688
					c7.044-36.429,10.413-84.883,10.413-84.883h-39.39c0,0-3.664,32.731,1.722,84.633C168.454,386,169.284,422.609,169.566,436.688z
					" />
                <polygon style="fill:#263238;"
                    points="168.48,435.904 168.454,440.589 182.825,440.592 183.578,435.907 				" />
			</g>
            <path style="fill:#407BFF;" d="M235.34,262.06c-27.32,10.5-71.83,2.89-71.83,2.89c0.53-13.36,0.99-39.82,0.81-61.81
				c-0.01-0.51-0.01-1.02-0.02-1.53c-0.03-3.12-0.08-6.14-0.14-9c-0.01-0.35-0.01-0.7-0.02-1.04c-0.13-5.62-0.33-10.59-0.59-14.57
				c-0.5-7.49,3.57-14.46,10.98-15.71c2.25-0.38,4.68-0.71,7.21-0.98c0.6-0.07,1.21-0.13,1.83-0.19c7.02-0.69,14.72-0.99,21.75-0.79
				c0.35,0,0.7,0.01,1.05,0.02c0.18,0.01,0.38,0.01,0.56,0.02c0.3,0.01,0.61,0.02,0.91,0.04c3.13,0.13,6.1,0.36,8.76,0.71
				c6.04,0.78,11.41,5.55,11.51,11.65c0.09,5.59,0.64,17.39,1.43,30.7c0.3,5.04,0.64,10.31,1.01,15.53
				C231.98,238.55,233.8,258.47,235.34,262.06z" />
            <path style="fill:#407BFF;" d="M165.63,237.61c0.01,0.01,0.02,0.03,0.02,0.04l-0.03-0.02c-0.04-0.02-0.08-0.02-0.13-0.02
				l-3.96,7.43c-0.26-0.14-0.51-0.28-0.76-0.43l-0.19-0.12l-0.12-0.08l-0.22-0.16l-0.46-0.32l-0.37-0.28
				c-0.51-0.38-0.92-0.72-1.36-1.08c-0.83-0.71-1.62-1.41-2.39-2.12c-1.53-1.41-3-2.82-4.46-4.25c-2.88-2.89-5.67-5.83-8.38-8.85
				c-2.73-3.02-5.36-6.11-7.96-9.42c-0.65-0.83-1.31-1.69-1.95-2.61c-0.33-0.48-0.65-0.92-0.99-1.47c-0.33-0.5-0.68-1.09-1.07-1.82
				l-0.31-0.66l-0.16-0.33c-0.07-0.19-0.15-0.41-0.22-0.61l-0.19-0.64c-0.06-0.27-0.1-0.22-0.21-1.06
				c-0.08-0.65-0.09-1.33-0.02-1.99l0.06-0.49c0.03-0.15,0.06-0.34,0.08-0.4l0.15-0.53c0.11-0.36,0.25-0.71,0.4-1.06l0.23-0.5
				l0.13-0.25l0.05-0.09l0.43-0.71c0.34-0.54,0.5-0.75,0.72-1.06c0.85-1.17,1.53-1.98,2.24-2.85c2.79-3.29,5.55-6.2,8.34-9.15
				c2.81-2.9,5.61-5.78,8.48-8.57c5.71-5.63,11.51-11.1,17.56-16.37l11.44,12.58c-5.69,5.45-11.56,10.78-17.41,16.06l-8.74,7.92
				c-2.8,2.51-5.62,5.1-8.15,7.58c0.2,0.36,0.41,0.72,0.63,1.08c1.94,3.2,4.14,6.45,6.3,9.69c2.2,3.23,4.42,6.47,6.68,9.64
				c1.12,1.6,2.25,3.18,3.4,4.71c0.57,0.77,1.15,1.5,1.71,2.21l0.79,0.98l0.31,0.37L165.63,237.61z" />
            <path
                style="fill:none;stroke:#FFFFFF;stroke-width:0.5;stroke-linecap:round;stroke-linejoin:round;stroke-miterlimit:10;"
                d="
				M193.206,168.052c0,0,5.175,21.493,3.692,42.387" />
            <path
                style="fill:none;stroke:#FFFFFF;stroke-width:0.5;stroke-linecap:round;stroke-linejoin:round;stroke-miterlimit:10;"
                d="
				M204.979,167.587c0,0,5.175,21.493,3.692,42.387" />
            <path style="opacity:0.2;" d="M230.55,218c-10.1-14.727-17.712-31.086-22.572-49.25l21.562,33.72
				C229.84,207.51,230.18,212.78,230.55,218z" />
            <path style="opacity:0.2;" d="M178.011,231.06c0,0,1.942,13.119,1.247,20.673c0,0,21.546,3.376,44.212-1.639
				c0.904-5.094,0.853-12.781-1.206-20.36C208.929,229.06,193.959,229.675,178.011,231.06z" />
            <g>
				<g>
					<g>
						<g>
							<g>
								<g>
									<path style="fill:#263238;" d="M210.553,117.545c-4.27-1.517-9.015-1.326-13.034,0.767c-2.624,1.367-4.905,3.46-4.849,6.6
										c0.131,7.326,2.174,19.581,2.174,19.581l24.73-11.18c0,0,1.801-6.137-1.096-10.051
										C216.328,120.357,213.709,118.666,210.553,117.545z" />
                                    <path style="fill:#263238;" d="M192.778,132.585c0,0,0.537-2.129-1.919-6.084c-2.456-3.955,0.236-6.416,2.125-5.846
										c0,0-0.985-2.436,0.651-3.27c1.637-0.834,2.469,0.118,2.469,0.118s6.165-4.933,14.537-3.28
										c6.745,1.332,11.733-3.371,14.236-1.539c2.503,1.832-2.049,3.543-2.049,3.543s4.049,2.23,3.419,4.31
										c-0.629,2.08-4.336,2.245-4.336,2.245s3.849,2.556,2.279,4.257c-1.57,1.702-6.467-0.36-6.467-0.36
										S198.303,126.578,192.778,132.585z" />
                                    <g>
										<path style="fill:#FFC3BD;" d="M205.651,153.602l0.001,0.01c-0.018,0.031-0.026,0.052-0.044,0.083l-1.556,4.053
											c-0.183,0.842-0.286,1.689-0.31,2.52c-0.023,0.701,0.014,1.389,0.089,2.053c0.781,1.357,0.907,4.257-2.355,3.917
											c-4.117-0.422-11.097-6.881-11.171-8.725c2.514-5.417,4.903-12.192,5.178-17.598l4.145,5.588L205.651,153.602z" />
									</g>
                                    <g style="opacity:0.2;">
										<path d="M205.607,153.695l-1.556,4.053c-2.447-1.454-4.867-4.28-5.186-7.087c-0.217-2.024,0.875-3.777,1.683-3.792
											L205.607,153.695z" />
									</g>
                                    <g>
										<path style="fill:#FFC3BD;" d="M216.972,146.085c-0.341,0.881-0.711,1.746-1.098,2.596
											c-3.441,7.502-13.12,7.165-18.471,0.783c-0.008-0.012-0.006-0.022-0.016-0.025c-0.474-0.567-0.917-1.18-1.316-1.846
											c-3.254-5.405-1.884-9.139-0.365-17.79c1.517-8.641,11.416-13.069,18.831-7.755
											C221.381,126.952,220.407,137.279,216.972,146.085z" />
									</g>
                                    <path style="fill:#FFFFFF;" d="M209.249,145.273c-0.342,0.923-1.188,1.46-1.89,1.2c-0.702-0.26-0.994-1.219-0.652-2.142
										c0.342-0.923,1.188-1.46,1.89-1.2C209.299,143.391,209.591,144.35,209.249,145.273z" />
                                    <path style="fill:#263238;" d="M202.949,128.462c2.255-0.316,0.719-2.802,1.203-4.198
										c1.573-4.536,13.912-1.434,15.331,5.505c0,0-0.341-5.287-4.192-8.526c-3.851-3.239-12.134-4.713-15.943-0.972
										c-3.808,3.741-3.827,10.335-3.827,10.335s-0.103,1.192,0.634,1.979c0.411,0.397,1.134,2.225,2.333,2.71
										c1.022,0.414,1.802,0.25,2.177-1.231C201.042,132.583,201.44,128.673,202.949,128.462z" />
                                    <g>
										<path style="fill:#FFC3BD;" d="M190.685,134.612c0.097,2.365,1.277,4.464,2.728,5.759
											c2.183,1.947,4.558,0.305,5.025-2.428c0.421-2.459-0.208-6.436-2.916-7.336
											C192.854,129.719,190.574,131.908,190.685,134.612" />
									</g>
                                    <g>
										<path style="fill:#263238;" d="M208.363,135.104c-0.161,0.672,0.064,1.301,0.503,1.407
											c0.439,0.105,0.925-0.354,1.086-1.025c0.161-0.672-0.064-1.301-0.503-1.407
											C209.01,133.973,208.524,134.432,208.363,135.104" />
									</g>
                                    <g>
										<path style="fill:#263238;" d="M215.745,136.781c-0.161,0.672,0.064,1.301,0.503,1.407
											c0.439,0.105,0.925-0.354,1.087-1.025c0.161-0.672-0.064-1.301-0.503-1.407
											C216.392,135.65,215.906,136.109,215.745,136.781" />
									</g>
								</g>
                                <g>
									<path style="fill:#263238;" d="M218.377,134.762c-0.118-0.029-0.218-0.118-0.253-0.243c-0.159-0.56-0.44-0.952-0.833-1.165
										c-0.648-0.35-1.42-0.124-1.428-0.121c-0.179,0.057-0.379-0.044-0.436-0.229c-0.057-0.184,0.045-0.379,0.229-0.437
										c0.041-0.013,1.055-0.32,1.966,0.174c0.565,0.306,0.96,0.84,1.171,1.587c0.053,0.185-0.054,0.378-0.24,0.431
										C218.494,134.776,218.433,134.776,218.377,134.762z" />
								</g>
                                <g>
									<path style="fill:#263238;" d="M206.926,132.035c-0.054-0.013-0.106-0.039-0.151-0.077c-0.16-0.133-0.183-0.37-0.051-0.53
										c0.031-0.038,0.767-0.916,1.887-1.009c0.694-0.058,1.369,0.192,2.005,0.745c0.158,0.137,0.175,0.376,0.038,0.533
										c-0.137,0.158-0.376,0.174-0.533,0.037c-0.475-0.412-0.959-0.602-1.441-0.563c-0.8,0.064-1.368,0.732-1.373,0.739
										C207.21,132.024,207.061,132.067,206.926,132.035z" />
								</g>
                                <g>
									<path style="fill:#ED847E;" d="M212.966,135.601c0,0,0.348,3.078,1.284,5.211c0.939,2.141-2.75,1.34-2.75,1.34
										L212.966,135.601z" />
								</g>
							</g>
						</g>
					</g>
				</g>
			</g>
            <path style="opacity:0.2;" d="M177.14,180.37l-12.84,21.24c-0.03-3.12-0.08-6.14-0.14-9c-0.01-0.35-0.01-0.7-0.02-1.04
				L177.14,180.37z" />
		</g>
        <g>
			<path style="fill:#407BFF;" d="M239.16,212.18c-4.11,1.87-8.94,0.27-11.21-3.52c-0.15-0.25-0.29-0.49-0.44-0.74
				c-0.29-0.49-0.58-0.99-0.87-1.49c-0.15-0.24-0.29-0.49-0.43-0.74c-0.47-0.8-0.93-1.61-1.4-2.42c-0.51-0.9-1.03-1.8-1.55-2.71
				c-0.51-0.9-1.02-1.8-1.54-2.71c-0.52-0.9-1.03-1.81-1.53-2.71c-0.51-0.91-1.02-1.82-1.52-2.73c-0.06-0.11-0.12-0.22-0.18-0.33
				c-0.95-1.71-1.9-3.43-2.84-5.14c-1.99-3.66-3.96-7.33-5.88-11.03c-1.92-3.71-3.82-7.42-5.61-11.21l7.87-5.15
				c2.75,3.16,5.39,6.4,8.01,9.65c0.29,0.36,0.58,0.72,0.87,1.09l6.01-3.14c1.5,2.64,2.92,5.32,4.32,8.02
				c1.39,2.69,2.77,5.4,4.11,8.12c1.34,2.72,2.68,5.45,3.97,8.2c1.31,2.74,2.59,5.5,3.85,8.26l0.35,0.78
				C245.53,204.95,243.58,210.17,239.16,212.18z" />
            <path style="fill:#407BFF;" d="M223.26,200.56c-0.11-0.18-0.21-0.35-0.31-0.53c-0.94-1.62-1.86-3.25-2.76-4.89
				c0.5,0.9,1.01,1.81,1.53,2.71C222.24,198.76,222.75,199.66,223.26,200.56z" />
            <g>
				<path style="fill:#FFC3BD;" d="M212.04,161.58c-0.191,1.516-1.29,3.88-3.5,3.8c-2.07-0.08-3.8-0.78-4.01-0.87
					c-0.01-0.01-0.02-0.01-0.02-0.01c-1.69-0.43-4.86-1.5-5.95-3.59c-1.53-2.92,0.86-7.5,0.86-7.5
					c-2.48-2.35-5.414-6.393-3.364-5.473c2.04,0.92,10.094,6.543,12.976,5.906c2.68-0.592,3.619-2.919,4.615-2.448
					c1.146,0.542-0.982,2.623-2.052,4.783C211.594,156.178,212.331,159.271,212.04,161.58z" />
                <g style="opacity:0.2;">
					<path d="M203.789,164.55c-0.036,0-0.071-0.007-0.105-0.023c-0.206-0.096-5.061-2.373-5.942-4.86
						c-0.785-2.219,0.9-5.404,1.358-6.205c-0.644-0.566-3.021-2.71-3.658-4.02c-0.351-0.724-0.43-1.241-0.24-1.58
						c0.151-0.271,0.411-0.305,0.44-0.308c1.031,0.015,2.08,0.787,3.531,1.855c1.444,1.063,3.24,2.385,5.673,3.451
						c4.377,1.917,5.162,0.751,5.681-0.021l0.197-0.287c0.576-0.831,1.542-2.223,3.183-1.556c0.128,0.052,0.19,0.197,0.138,0.325
						c-0.052,0.128-0.197,0.19-0.325,0.138c-1.179-0.475-1.867,0.342-2.584,1.378l-0.194,0.282c-0.778,1.154-1.908,2.12-6.295,0.199
						c-2.484-1.088-4.306-2.429-5.769-3.506c-1.322-0.973-2.366-1.742-3.208-1.759c0.019,0.002-0.013,0.015-0.036,0.063
						c-0.033,0.067-0.111,0.347,0.259,1.108c0.678,1.395,3.661,3.971,3.691,3.997c0.093,0.08,0.114,0.215,0.05,0.32
						c-0.023,0.037-2.226,3.684-1.42,5.96c0.811,2.29,5.632,4.551,5.681,4.574c0.125,0.058,0.179,0.207,0.121,0.332
						C203.974,164.497,203.883,164.55,203.789,164.55z" />
				</g>
			</g>
		</g>
        <path style="opacity:0.2;"
            d="M215.583,163.583L237,196.167C237,196.167,234.5,185.25,215.583,163.583z" />
        <g>
			<g>
				<path style="fill:#FFC3BD;" d="M164.174,237.775c0,0,8.62,2.654,9.301,4.335c0.682,1.681-2.135,1.246-2.135,1.246
					s3.074,0.647,2.991,1.831c-0.1,1.421-3.049,0.954-3.049,0.954s2.489,0.618,2.335,1.664c-0.16,1.085-3.522,0.766-3.522,0.766
					s1.673,0.726,1.099,1.384s-6.839,0.199-8.821-1.21c-1.982-1.409-0.704-9.307-0.122-11.025c0.582-1.718-0.438-3.5,1.996-5.468
					L164.174,237.775L164.174,237.775z" />
			</g>
            <g>
				<path style="opacity:0.2;" d="M171.32,243.487c-0.004-0.001-0.008-0.001-0.013-0.003L166,242.132
					c-0.071-0.019-0.114-0.091-0.096-0.162c0.018-0.071,0.094-0.115,0.162-0.096l5.307,1.353c0.071,0.018,0.114,0.091,0.096,0.162
					C171.452,243.456,171.387,243.498,171.32,243.487z" />
			</g>
            <g>
				<path style="opacity:0.2;" d="M171.108,246.248c-0.001,0-0.002,0-0.003-0.001l-5.199-0.944c-0.072-0.013-0.12-0.082-0.107-0.155
					c0.013-0.073,0.07-0.11,0.155-0.107l5.199,0.944c0.072,0.013,0.12,0.083,0.107,0.155
					C171.246,246.212,171.179,246.259,171.108,246.248z" />
			</g>
            <g>
				<path style="opacity:0.2;" d="M169.896,248.674l-3.882-0.604c-0.073-0.011-0.122-0.08-0.111-0.152
					c0.011-0.073,0.079-0.123,0.152-0.111l3.882,0.604c0.073,0.011,0.122,0.08,0.111,0.152
					C170.037,248.636,169.969,248.686,169.896,248.674z" />
			</g>
		</g>
	</g>
</g>
</svg>
