<?xml version="1.0" encoding="utf-8"?><!-- Generator: Adobe Illustrator 27.5.0, SVG Export Plug-In . SVG Version: 6.00 Build 0)  -->
<svg version="1.1" xmlns="http://www.w3.org/2000/svg" xmlns:xlink="http://www.w3.org/1999/xlink"
    x="0px" y="0px" viewBox="0 0 500 500" style="enable-background:new 0 0 500 500;"
    xml:space="preserve">
<g id="Background_Complete">
	<g>
		<rect y="382.398" style="fill:#EBEBEB;" width="500" height="0.25" />
        <rect x="416.779" y="398.494" style="fill:#EBEBEB;" width="33.122" height="0.25" />
        <rect x="322.527" y="401.208" style="fill:#EBEBEB;" width="8.693" height="0.25" />
        <rect x="396.586" y="389.208" style="fill:#EBEBEB;" width="19.192" height="0.25" />
        <rect x="52.459" y="390.888" style="fill:#EBEBEB;" width="43.193" height="0.25" />
        <rect x="104.556" y="390.888" style="fill:#EBEBEB;" width="6.333" height="0.25" />
        <rect x="131.471" y="395.111" style="fill:#EBEBEB;" width="93.676" height="0.25" />
        <path style="fill:#EBEBEB;" d="M237.014,337.8H43.915c-3.147,0-5.708-2.561-5.708-5.708V60.66c0-3.147,2.561-5.708,5.708-5.708
			h193.099c3.146,0,5.707,2.561,5.707,5.708v271.432C242.721,335.239,240.16,337.8,237.014,337.8z M43.915,55.203
			c-3.01,0-5.458,2.448-5.458,5.458v271.432c0,3.01,2.448,5.458,5.458,5.458h193.099c3.009,0,5.457-2.448,5.457-5.458V60.66
			c0-3.009-2.448-5.458-5.457-5.458H43.915z" />
        <path style="fill:#EBEBEB;" d="M453.31,337.8H260.212c-3.147,0-5.707-2.561-5.707-5.708V60.66c0-3.147,2.561-5.708,5.707-5.708
			H453.31c3.148,0,5.708,2.561,5.708,5.708v271.432C459.019,335.239,456.458,337.8,453.31,337.8z M260.212,55.203
			c-3.009,0-5.457,2.448-5.457,5.458v271.432c0,3.01,2.448,5.458,5.457,5.458H453.31c3.01,0,5.458-2.448,5.458-5.458V60.66
			c0-3.009-2.448-5.458-5.458-5.458H260.212z" />
	</g>
    <g>
		
			<rect x="85.393" y="119.277"
                transform="matrix(-1 -1.224647e-16 1.224647e-16 -1 176.4191 357.0506)"
                style="fill:#E0E0E0;" width="5.633" height="118.496" />
        <g>
			<rect x="88.645" y="119.277" style="fill:#E0E0E0;" width="107.142" height="118.496" />
            <rect x="88.083" y="119.277" style="fill:#F0F0F0;" width="111.125" height="118.496" />
            <rect x="92.606" y="123.057" style="fill:#FFFFFF;" width="101.901" height="109.272" />
            <rect x="191.561" y="123.057" style="fill:#E0E0E0;" width="2.947" height="109.272" />

            <rect x="140.637" y="153.343"
                transform="matrix(6.123234e-17 -1 1 6.123234e-17 -60.9979 345.219)"
                style="fill:#E0E0E0;" width="2.947" height="99.53" />
            <rect x="91.026" y="196.688" style="fill:#F0F0F0;" width="103.482" height="4.947" />
		</g>
        <g>
			
				<rect x="273.703" y="193.874"
                    transform="matrix(-1 -1.224647e-16 1.224647e-16 -1 694.8206 574.4192)"
                    style="fill:#F0F0F0;" width="147.415" height="186.67" />
            <g>
				
					<rect x="278.913" y="200.678"
                        transform="matrix(-1 -1.224647e-16 1.224647e-16 -1 694.8206 441.2728)"
                        style="fill:#E0E0E0;" width="136.994" height="39.917" />

                <rect x="408.125" y="207.14"
                    transform="matrix(-1 -1.224647e-16 1.224647e-16 -1 824.0324 447.7349)"
                    style="fill:#EBEBEB;" width="7.782" height="33.455" />

                <rect x="370.496" y="207.14"
                    transform="matrix(-1 -1.224647e-16 1.224647e-16 -1 748.7731 447.7349)"
                    style="fill:#EBEBEB;" width="7.782" height="33.455" />

                <rect x="324.879" y="206.722"
                    transform="matrix(-0.9855 -0.1698 0.1698 -0.9855 614.8145 499.4897)"
                    style="fill:#EBEBEB;" width="7.782" height="33.455" />

                <rect x="398.482" y="211.549"
                    transform="matrix(-1 -1.224647e-16 1.224647e-16 -1 804.7468 452.1436)"
                    style="fill:#EBEBEB;" width="7.782" height="29.046" />

                <rect x="380.595" y="211.549"
                    transform="matrix(-1 -1.224647e-16 1.224647e-16 -1 768.9723 452.1436)"
                    style="fill:#EBEBEB;" width="7.782" height="29.046" />

                <rect x="335.446" y="211.549"
                    transform="matrix(-1 -1.224647e-16 1.224647e-16 -1 678.6733 452.1436)"
                    style="fill:#EBEBEB;" width="7.782" height="29.046" />

                <rect x="357.031" y="211.05"
                    transform="matrix(-0.9762 -0.2169 0.2169 -0.9762 664.3188 524.0675)"
                    style="fill:#EBEBEB;" width="7.782" height="29.046" />

                <rect x="391.753" y="205.479"
                    transform="matrix(-1 -1.224647e-16 1.224647e-16 -1 787.3972 446.0739)"
                    style="fill:#EBEBEB;" width="3.891" height="35.116" />

                <rect x="345.465" y="205.479"
                    transform="matrix(-1 -1.224647e-16 1.224647e-16 -1 694.8207 446.0739)"
                    style="fill:#EBEBEB;" width="3.891" height="35.116" />
			</g>
            <g>
				<rect x="278.913" y="246.915" style="fill:#E0E0E0;" width="136.994"
                    height="39.917" />
                <rect x="278.913" y="253.378" style="fill:#EBEBEB;" width="7.782" height="33.455" />
                <rect x="316.543" y="253.378" style="fill:#EBEBEB;" width="7.782" height="33.455" />

                <rect x="362.159" y="252.96"
                    transform="matrix(0.9855 -0.1698 0.1698 0.9855 -40.4854 66.0879)"
                    style="fill:#EBEBEB;" width="7.782" height="33.455" />
                <rect x="288.556" y="257.786" style="fill:#EBEBEB;" width="7.782" height="29.046" />
                <rect x="306.443" y="257.786" style="fill:#EBEBEB;" width="7.782" height="29.046" />
                <rect x="351.593" y="257.786" style="fill:#EBEBEB;" width="7.782" height="29.046" />

                <rect x="330.007" y="257.288"
                    transform="matrix(0.9762 -0.2169 0.2169 0.9762 -51.0082 78.8957)"
                    style="fill:#EBEBEB;" width="7.782" height="29.046" />
                <rect x="299.177" y="251.717" style="fill:#EBEBEB;" width="3.891" height="35.116" />
                <rect x="345.465" y="251.717" style="fill:#EBEBEB;" width="3.891" height="35.116" />

                <rect x="408.125" y="253.378"
                    transform="matrix(-1 -1.224647e-16 1.224647e-16 -1 824.0324 540.2099)"
                    style="fill:#EBEBEB;" width="7.782" height="33.455" />

                <rect x="398.482" y="257.786"
                    transform="matrix(-1 -1.224647e-16 1.224647e-16 -1 804.7468 544.6187)"
                    style="fill:#EBEBEB;" width="7.782" height="29.046" />

                <rect x="380.595" y="257.786"
                    transform="matrix(-1 -1.224647e-16 1.224647e-16 -1 768.9723 544.6187)"
                    style="fill:#EBEBEB;" width="7.782" height="29.046" />

                <rect x="391.753" y="251.717"
                    transform="matrix(-1 -1.224647e-16 1.224647e-16 -1 787.3972 538.549)"
                    style="fill:#EBEBEB;" width="3.891" height="35.116" />
			</g>
            <g>
				
					<rect x="278.913" y="293.153"
                        transform="matrix(-1 -1.224647e-16 1.224647e-16 -1 694.8206 626.2232)"
                        style="fill:#E0E0E0;" width="136.994" height="39.917" />
                <g>
					
						<rect x="329.495" y="299.615"
                            transform="matrix(-1 -1.224647e-16 1.224647e-16 -1 666.7727 632.6853)"
                            style="fill:#EBEBEB;" width="7.782" height="33.455" />

                    <rect x="283.879" y="299.197"
                        transform="matrix(-0.9855 -0.1698 0.1698 -0.9855 517.704 676.1334)"
                        style="fill:#EBEBEB;" width="7.782" height="33.455" />

                    <rect x="357.482" y="304.024"
                        transform="matrix(-1 -1.224647e-16 1.224647e-16 -1 722.7463 637.094)"
                        style="fill:#EBEBEB;" width="7.782" height="29.046" />

                    <rect x="339.595" y="304.024"
                        transform="matrix(-1 -1.224647e-16 1.224647e-16 -1 686.9716 637.094)"
                        style="fill:#EBEBEB;" width="7.782" height="29.046" />

                    <rect x="294.445" y="304.024"
                        transform="matrix(-1 -1.224647e-16 1.224647e-16 -1 596.673 637.094)"
                        style="fill:#EBEBEB;" width="7.782" height="29.046" />

                    <rect x="316.031" y="303.526"
                        transform="matrix(-0.9762 -0.2169 0.2169 -0.9762 563.236 697.9215)"
                        style="fill:#EBEBEB;" width="7.782" height="29.046" />

                    <rect x="350.753" y="297.954"
                        transform="matrix(-1 -1.224647e-16 1.224647e-16 -1 705.3966 631.0243)"
                        style="fill:#EBEBEB;" width="3.891" height="35.116" />

                    <rect x="304.465" y="297.954"
                        transform="matrix(-1 -1.224647e-16 1.224647e-16 -1 612.8202 631.0243)"
                        style="fill:#EBEBEB;" width="3.891" height="35.116" />

                    <rect x="373.41" y="299.197"
                        transform="matrix(-0.9855 -0.1698 0.1698 -0.9855 695.4649 691.3397)"
                        style="fill:#EBEBEB;" width="7.782" height="33.455" />

                    <rect x="383.977" y="304.024"
                        transform="matrix(-1 -1.224647e-16 1.224647e-16 -1 775.7353 637.094)"
                        style="fill:#EBEBEB;" width="7.782" height="29.046" />

                    <rect x="405.562" y="303.526"
                        transform="matrix(-0.9762 -0.2169 0.2169 -0.9762 740.1666 717.3424)"
                        style="fill:#EBEBEB;" width="7.782" height="29.046" />

                    <rect x="393.996" y="297.954"
                        transform="matrix(-1 -1.224647e-16 1.224647e-16 -1 791.8826 631.0243)"
                        style="fill:#EBEBEB;" width="3.891" height="35.116" />
				</g>
			</g>
		</g>
        <g>
			<path style="fill:#E6E6E6;" d="M176.405,265.779H90.838c-9.281,0-16.805,7.524-16.805,16.805V349.4H193.21v-66.816
				C193.21,273.303,185.686,265.779,176.405,265.779z" />
            <path style="fill:#E0E0E0;" d="M218.508,315.302h-15.312c-5.515,0-9.986,4.471-9.986,9.986v55.257h35.285v-55.257
				C228.494,319.772,224.023,315.302,218.508,315.302z" />
            <path style="fill:#EBEBEB;" d="M218.508,315.302h-0.324c-5.515,0-9.986,4.471-9.986,9.986v55.257h20.296v-55.257
				C228.494,319.772,224.023,315.302,218.508,315.302z" />
            <rect x="86.496" y="355.162" style="fill:#E6E6E6;" width="117.429" height="25.383" />
            <path style="fill:#F5F5F5;" d="M204.092,331.948H90.843c-5.607,0-10.153,4.546-10.153,10.153v6.324
				c0,5.607,4.546,10.153,10.153,10.153h113.248c5.607,0,10.153-4.546,10.153-10.153v-6.324
				C214.244,336.494,209.699,331.948,204.092,331.948z" />
            <path style="fill:#E0E0E0;enable-background:new    ;" d="M105.075,331.948H91.029c-5.607,0-10.153,4.546-10.153,10.153v6.324
				c0,5.607,4.546,10.153,10.153,10.153h14.047c5.607,0,10.153-4.546,10.153-10.153v-6.324
				C115.228,336.494,110.682,331.948,105.075,331.948z" />
            <path style="fill:#E0E0E0;" d="M89.514,315.302H74.202c-5.515,0-9.986,4.471-9.986,9.986v55.257H99.5v-55.257
				C99.5,319.772,95.029,315.302,89.514,315.302z" />
            <path style="fill:#F0F0F0;" d="M89.514,315.302h-0.323c-5.515,0-9.986,4.471-9.986,9.986v55.257H99.5v-55.257
				C99.5,319.772,95.029,315.302,89.514,315.302z" />
		</g>
        <g>
			<circle style="fill:#E0E0E0;" cx="343.684" cy="129.166" r="20.357" />

            <ellipse transform="matrix(0.1602 -0.9871 0.9871 0.1602 161.1343 447.722)"
                style="fill:#F0F0F0;" cx="343.684" cy="129.166" rx="17.308" ry="17.308" />
            <g>
				<polyline style="fill:#F0F0F0;"
                    points="342.868,117.292 342.868,129.392 334.849,124.854 				" />
                <path style="fill:#E0E0E0;" d="M342.868,130.256c-0.147,0-0.294-0.037-0.426-0.112l-8.018-4.537
					c-0.415-0.235-0.561-0.762-0.326-1.178c0.234-0.415,0.761-0.562,1.178-0.326l6.728,3.807v-10.618
					c0-0.478,0.387-0.864,0.864-0.864c0.478,0,0.864,0.387,0.864,0.864v12.1c0,0.308-0.163,0.592-0.429,0.747
					C343.168,130.217,343.018,130.256,342.868,130.256z" />
			</g>
		</g>
	</g>
</g>
    <g id="Background_Simple" style="display:none;">
	<g style="display:inline;">
		<path style="fill:#407BFF;" d="M244.692,103.121c76.797,34.553,7.082,96.135,51.424,129.674
			c44.342,33.539,164.905-5.234,118.945,81.858c-53.986,102.302-290.397,88.096-341.37-37.384
			C22.719,151.788,167.894,68.568,244.692,103.121z" />
        <path style="opacity:0.9;fill:#FFFFFF;" d="M244.692,103.121c76.797,34.553,7.082,96.135,51.424,129.674
			c44.342,33.539,164.905-5.234,118.945,81.858c-53.986,102.302-290.397,88.096-341.37-37.384
			C22.719,151.788,167.894,68.568,244.692,103.121z" />
	</g>
</g>
    <g id="Shadow_1_">
	<ellipse id="_x3C_Path_x3E__359_" style="fill:#F5F5F5;" cx="250" cy="413.796" rx="193.889"
        ry="13.766" />
</g>
    <g id="Speech_bubble_2">
	<g>
		<path style="fill:#407BFF;" d="M388.66,205.821h-26.953c-5.118,0-9.268,4.149-9.268,9.268v11.185c0,5.118,4.149,9.268,9.268,9.268
			h11.54l3.107,9.785l3.127-9.785h9.179c5.118,0,9.267-4.149,9.267-9.268v-11.185C397.927,209.97,393.778,205.821,388.66,205.821z" />
        <path style="fill:#FFFFFF;" d="M364.681,220.041c0,1.034-0.838,1.872-1.872,1.872c-1.034,0-1.872-0.838-1.872-1.872
			c0-1.034,0.838-1.872,1.872-1.872C363.843,218.169,364.681,219.007,364.681,220.041z M371.059,218.169
			c-1.034,0-1.872,0.838-1.872,1.872c0,1.034,0.838,1.872,1.872,1.872s1.872-0.838,1.872-1.872
			C372.931,219.007,372.092,218.169,371.059,218.169z M379.308,218.169c-1.034,0-1.872,0.838-1.872,1.872
			c0,1.034,0.838,1.872,1.872,1.872c1.034,0,1.872-0.838,1.872-1.872C381.18,219.007,380.342,218.169,379.308,218.169z
			 M387.558,218.169c-1.034,0-1.872,0.838-1.872,1.872c0,1.034,0.838,1.872,1.872,1.872c1.034,0,1.872-0.838,1.872-1.872
			C389.43,219.007,388.591,218.169,387.558,218.169z" />
	</g>
</g>
    <g id="Speech_bubble_1">
	<g>
		<path style="fill:#407BFF;" d="M111.5,238.818H84.547c-5.118,0-9.268,4.149-9.268,9.268v11.185c0,5.118,4.149,9.268,9.268,9.268
			h11.541l3.107,9.785l3.127-9.785h9.179c5.118,0,9.267-4.149,9.267-9.268v-11.185C120.768,242.968,116.618,238.818,111.5,238.818z" />
        <path style="fill:#FFFFFF;" d="M87.521,253.039c0,1.034-0.838,1.872-1.872,1.872c-1.034,0-1.872-0.838-1.872-1.872
			c0-1.034,0.838-1.872,1.872-1.872C86.683,251.167,87.521,252.005,87.521,253.039z M93.899,251.167
			c-1.034,0-1.872,0.838-1.872,1.872c0,1.034,0.838,1.872,1.872,1.872c1.034,0,1.872-0.838,1.872-1.872
			C95.771,252.005,94.933,251.167,93.899,251.167z M102.148,251.167c-1.034,0-1.872,0.838-1.872,1.872
			c0,1.034,0.838,1.872,1.872,1.872c1.034,0,1.872-0.838,1.872-1.872C104.02,252.005,103.182,251.167,102.148,251.167z
			 M110.398,251.167c-1.034,0-1.872,0.838-1.872,1.872c0,1.034,0.838,1.872,1.872,1.872c1.034,0,1.872-0.838,1.872-1.872
			C112.27,252.005,111.432,251.167,110.398,251.167z" />
	</g>
</g>
    <g id="Character_4">
	<g>
		<g>
			<path style="fill:#263238;" d="M412.981,415.197H286.08c-23.711,0-25.232-27.917-5.745-41.058
				c3.276-2.225,7.153-4.018,11.611-5.191c38.59-10.147,92.817-78.38,130.956-49.825c0.038,0.019,0.066,0.047,0.103,0.075
				C461.154,347.95,434.561,415.197,412.981,415.197z" />
            <path style="opacity:0.5;fill:#FFFFFF;" d="M412.981,415.197H286.08c-23.711,0-25.232-27.917-5.745-41.058
				c3.276-2.225,7.153-4.018,11.611-5.191c38.59-10.147,92.817-78.38,130.956-49.825c0.038,0.019,0.066,0.047,0.103,0.075
				C461.154,347.95,434.561,415.197,412.981,415.197z" />
            <path style="opacity:0.2;enable-background:new    ;" d="M422.903,319.123c-3.201-0.216-7.087,0.685-11.264,4.186
				c-10.851,9.105,5.652,52.909-20.299,71.131c-14.479,10.166-76.946,14.652-97.797,2.18c-15.397-9.21-15.591-14.981-13.207-22.482
				c3.276-2.225,7.153-4.018,11.611-5.191C330.536,358.801,384.764,290.568,422.903,319.123z" />
		</g>
        <g id="_x3C_Group_x3E__9_">
			<g>
				<path style="fill:#E4897B;"
                    d="M324.219,310.858l-7.564-5.333l5.659-5.784c0,0,5.811,2.984,5.256,8.345L324.219,310.858z" />
                <polygon style="fill:#E4897B;"
                    points="313.682,299.647 318.932,296.345 322.313,299.742 316.655,305.526 				" />
			</g>
            <path style="fill:#263238;" d="M361.464,297.087c-7.179,2.116-10.707,14.726-16.626,26.633l-17.23-17.125l-5.476,4.864
				c0,0,15.783,25.068,23.231,25.075c9.294,0.009,18.95-25.835,18.95-25.835L361.464,297.087z" />
            <path style="opacity:0.1;fill:#FFFFFF;" d="M364.31,310.701c0,0-1.53,4.093-3.961,9.021c-2.347,4.778-5.548,10.344-9.011,13.714
				c-1.943,1.896-3.971,3.098-5.979,3.098c-7.444-0.009-23.223-25.072-23.223-25.072l5.473-4.862l17.234,17.122
				c5.914-11.912,9.443-24.518,16.624-26.63L364.31,310.701z" />
            <path style="opacity:0.2;" d="M360.349,319.722c-2.347,4.778-5.548,10.344-9.011,13.714c0.375-11.424,5.979-22.575,5.979-22.575
				C358.959,313.714,359.917,316.737,360.349,319.722z" />
            <g>
				<path style="fill:#407BFF;" d="M354.597,366.75c0,0-60.851-8.738-64.063,4.614c-3.397,14.118,45.463,23.64,74.665,24.635
					c29.202,0.995,37.579-5.957,32.887-42.041H358.11L354.597,366.75z" />
                <path style="opacity:0.6;fill:#FFFFFF;enable-background:new    ;" d="M354.597,366.75c0,0-60.851-8.738-64.063,4.614
					c-3.397,14.118,45.463,23.64,74.665,24.635c29.202,0.995,37.579-5.957,32.887-42.041H358.11L354.597,366.75z" />
			</g>
            <polygon style="fill:#E4897B;" points="320.715,394.593 307.962,394.602 301.838,394.607 301.108,388.162 306.771,387.405
				320.602,385.556 			" />
            <path style="fill:#263238;" d="M302.49,387.352l1.552,7.356c0.086,0.41-0.183,0.811-0.596,0.885l-3.666,0.659
				c0,0-4.869,1.239-6.236,0.365c-3.995-2.553-7.844-18.736-6.217-19.934c0.596-0.439,1.628,0.225,2.143,0.753
				c1.637,1.677,5.135,6.346,6.518,7.728c1.617,1.616,4.486,1.665,5.746,1.599C302.097,386.745,302.415,386.996,302.49,387.352z" />
            <polygon style="opacity:0.2;enable-background:new    ;" points="320.715,394.593 307.962,394.602 306.771,387.405
				320.602,385.556 			" />
            <g>
				<polygon style="fill:#E4897B;" points="339.345,383.212 351.446,387.236 357.258,389.168 355.912,395.513 350.301,394.44 
					336.595,391.821 				" />
                <path style="fill:#263238;" d="M354.346,395.844l0.853-7.469c0.048-0.417,0.43-0.711,0.845-0.651l3.687,0.534
					c0,0,5.011,0.364,6.032,1.626c2.983,3.685,1.518,20.255-0.404,20.878c-0.704,0.228-1.473-0.729-1.795-1.392
					c-1.023-2.108-2.865-7.644-3.74-9.393c-1.023-2.044-3.73-2.998-4.945-3.334C354.527,396.545,354.305,396.206,354.346,395.844z" />
                <polygon style="opacity:0.2;enable-background:new    ;" points="339.345,383.212 351.446,387.236 350.301,394.44
					336.595,391.821 				" />
                <g>
					<polygon style="fill:#407BFF;"
                        points="348.196,395.565 344.746,395.887 346.807,383.953 350.772,386.038 					" />
                    <polygon style="opacity:0.6;fill:#FFFFFF;enable-background:new    ;" points="348.196,395.565 344.746,395.887
						346.807,383.953 350.772,386.038 					" />
				</g>
                <path style="fill:#407BFF;" d="M359.749,399.887c0.092,0.541,0.011,1.097-0.233,1.589c-0.196,0.301-0.538,0.473-0.897,0.451
					c-0.217,0.012-0.423-0.092-0.542-0.274c-0.513-0.883,0.698-3.595,0.851-3.897c0.024-0.066,0.091-0.107,0.161-0.097
					c0.078,0.008,0.143,0.063,0.164,0.139C359.489,398.475,359.655,399.175,359.749,399.887z M358.311,401.191
					c0.008,0.087,0.033,0.172,0.075,0.25c0.042,0.077,0.127,0.12,0.213,0.108c0.248,0.03,0.49-0.088,0.62-0.301
					c0.294-0.949,0.241-1.972-0.15-2.885C358.647,399.251,358.39,400.21,358.311,401.191z" />
                <path style="fill:#407BFF;" d="M359.284,397.824l-0.04,0.08c-0.337,0.867-1.83,2.589-2.684,2.47
					c-0.288-0.05-0.504-0.293-0.519-0.585c-0.067-0.285-0.016-0.585,0.141-0.832c0.622-0.991,2.769-1.313,2.889-1.308
					c0.069-0.012,0.137,0.023,0.169,0.085C359.263,397.759,359.278,397.79,359.284,397.824z M356.402,399.648l0.013,0.085
					c0.053,0.249,0.159,0.259,0.208,0.272c0.498,0.073,1.642-1.045,2.144-1.907c-0.624,0.131-1.863,0.466-2.257,1.092
					C356.423,399.326,356.385,399.487,356.402,399.648L356.402,399.648z" />
			</g>
            <path style="fill:#407BFF;" d="M309.12,386.468c0,0,56.612-21.988,73.949-18.314c17.337,3.673,17.418,12.747,8.63,21.206
				c-8.788,8.458-21.92,5.199-21.92,5.199s10.318-6.184,9.599-10c-0.72-3.817-7.279,4.912-7.279,4.912s-34.214,8.367-62.464,6.161
				L309.12,386.468z" />
            <g>
				<path style="fill:#407BFF;" d="M296.381,385.283c-0.331-0.438-0.515-0.969-0.526-1.517c0.035-0.357,0.26-0.668,0.588-0.814
					c0.187-0.111,0.418-0.113,0.607-0.007c0.863,0.547,1.037,3.512,1.041,3.851c0.009,0.07-0.031,0.137-0.098,0.161
					c-0.073,0.029-0.156,0.01-0.21-0.047C297.263,386.416,296.792,385.871,296.381,385.283z M297.056,383.463
					c-0.047-0.074-0.109-0.138-0.181-0.187c-0.072-0.049-0.168-0.048-0.239,0.003c-0.233,0.088-0.395,0.304-0.412,0.552
					c0.176,0.978,0.695,1.861,1.463,2.491C297.652,385.339,297.438,384.37,297.056,383.463z" />
                <path style="fill:#407BFF;" d="M297.744,386.899l-0.001-0.09c-0.101-0.925,0.431-3.141,1.244-3.43
					c0.279-0.088,0.582,0.028,0.73,0.28c0.191,0.222,0.284,0.512,0.259,0.803c-0.096,1.166-1.853,2.441-1.962,2.492
					c-0.056,0.042-0.133,0.043-0.189,0.002C297.793,386.947,297.765,386.926,297.744,386.899z M299.462,383.952l-0.051-0.069
					c-0.161-0.197-0.261-0.156-0.31-0.146c-0.476,0.165-0.976,1.684-1.024,2.68c0.493-0.404,1.439-1.272,1.5-2.009
					C299.591,384.248,299.55,384.087,299.462,383.952L299.462,383.952z" />
			</g>
            <path style="opacity:0.7;fill:#FFFFFF;enable-background:new    ;" d="M309.12,386.468c0,0,56.612-21.988,73.949-18.314
				c17.337,3.673,17.418,12.747,8.63,21.206c-8.788,8.458-21.92,5.199-21.92,5.199s10.318-6.184,9.599-10
				c-0.72-3.817-7.279,4.912-7.279,4.912s-34.214,8.367-62.464,6.161L309.12,386.468z" />
            <g>
				<polygon style="fill:#407BFF;"
                    points="308.432,386.297 311.613,384.84 313.441,396.754 309.02,396.029 				" />
                <polygon style="opacity:0.6;fill:#FFFFFF;enable-background:new    ;" points="308.432,386.297 311.613,384.84 313.441,396.754
					309.02,396.029 				" />
			</g>
            <path style="fill:#263238;" d="M402.111,299.018c-6.114,33.978-3.891,55.993-3.891,55.993s-28.429-0.39-40.11-1.052
				c-6.233-41.208,3.354-56.871,3.354-56.871s4.267-0.911,9.243-1.268c0.655-0.051,1.322-0.083,2-0.105
				c4.384-0.151,11.55,0.412,16.492,0.928c1.039,0.109,2.091,0.247,3.113,0.398C397.518,297.815,402.111,299.018,402.111,299.018z" />
            <path style="opacity:0.1;fill:#FFFFFF;" d="M402.111,299.014c-0.76,4.215-1.389,8.251-1.915,12.071
				c-0.817,6.036-1.37,11.565-1.727,16.502c-0.112,1.493-0.206,2.938-0.282,4.318c-0.291,5.069-0.366,9.396-0.357,12.897
				c0.028,6.58,0.394,10.204,0.394,10.204s-28.433-0.385-40.119-1.051c-6.233-41.208,3.361-56.866,3.361-56.866
				s4.261-0.911,9.246-1.267c0.648-0.056,1.314-0.084,2-0.113c4.384-0.15,11.546,0.413,16.493,0.929
				c1.032,0.113,2.084,0.253,3.107,0.404C397.521,297.813,402.111,299.014,402.111,299.014z" />
            <path style="opacity:0.2;" d="M376.719,336.533c11.677-1.577,18.858-3.736,21.468-4.628c-0.291,5.069-0.366,9.396-0.357,12.897
				c-13.572,1.252-19.109-1.359-19.109-1.359L376.719,336.533z" />
            <path style="opacity:0.2;" d="M400.196,311.086c-0.817,6.036-1.37,11.565-1.727,16.502c-3.886-7.923-1.014-17.422-1.014-17.422
				L400.196,311.086z" />
            <g>
				<path style="fill:#263238;" d="M378.263,350.492h-20.681c-0.797,0-1.499-0.649-1.568-1.449l-2.879-27.448
					c-0.069-0.801,0.521-1.449,1.318-1.449h20.681c0.797,0,1.499,0.649,1.568,1.449l2.879,27.448
					C379.649,349.843,379.06,350.492,378.263,350.492z" />
                <path style="opacity:0.6;fill:#FFFFFF;" d="M378.263,350.492h-20.681c-0.797,0-1.499-0.649-1.568-1.449l-2.879-27.448
					c-0.069-0.801,0.521-1.449,1.318-1.449h20.681c0.797,0,1.499,0.649,1.568,1.449l2.879,27.448
					C379.649,349.843,379.06,350.492,378.263,350.492z" />
                <path style="opacity:0.2;fill:#FFFFFF;" d="M377.398,350.492h-19.816c-0.797,0-1.499-0.649-1.568-1.449l-2.879-27.448
					c-0.069-0.801,0.521-1.449,1.318-1.449h19.816c0.797,0,1.499,0.649,1.568,1.449l2.879,27.448
					C378.785,349.843,378.195,350.492,377.398,350.492z" />
                <path style="fill:#263238;" d="M365.34,333.074c-1.234,0-2.147,1.005-2.04,2.244c0.107,1.24,1.194,2.244,2.428,2.244
					s2.147-1.005,2.04-2.244C366.534,335.318,365.447,334.313,365.34,333.074z" />
                <path style="opacity:0.3;" d="M369.815,322.324h-10.923c-0.534,0-1.042-0.327-1.282-0.825l-0.654-1.354h14.419l-0.42,1.354
					C370.801,321.997,370.349,322.324,369.815,322.324z" />
			</g>
            <path style="fill:#E4897B;" d="M376.238,335.651l-4.777-0.392l0.199,6.359l4.023,2.105l9.216-0.848l0.752-4.283
				C382.596,334.153,376.238,335.651,376.238,335.651z" />
            <path style="fill:#263238;" d="M402.111,299.018c4.905,1.485,11.868,29.987,10.754,36.3c-1.114,6.313-13.214,8.988-28.607,8.653
				v-7.437l17.853-5.21l-3.008-11.039c0,0-2.484-8.085-1.37-13.748C398.667,301.786,402.111,299.018,402.111,299.018z" />
            <path style="opacity:0.1;fill:#FFFFFF;" d="M402.111,299.018c4.905,1.485,11.868,29.987,10.754,36.3
				c-1.114,6.313-13.214,8.988-28.607,8.653v-7.437l17.853-5.21l-3.008-11.039c0,0-2.484-8.085-1.37-13.748
				C398.667,301.786,402.111,299.018,402.111,299.018z" />
            <g>
				<path style="fill:#E4897B;" d="M386.82,296.313c-2.488,2.6-6.402,4.778-12.672,4.543c-4.806-0.188-5.473-3.21-4.637-4.862
					c2.919-0.601,4.243-1.877,4.646-3.492c0.441-1.718-0.16-3.802-1.004-5.82l8.11-6.834l1.371-1.155
					c-0.028,0.385-0.056,0.798-0.075,1.23c-0.075,1.417-0.085,3.06,0.019,4.759C382.84,289.15,383.9,294.022,386.82,296.313z" />
                <path style="opacity:0.2;" d="M382.577,284.682c-1.511,3.088-4.159,6.815-8.42,7.819c0.441-1.718-0.16-3.802-1.004-5.82
					l8.11-6.834c0.432,0.009,0.864,0.037,1.295,0.075C382.483,281.341,382.473,282.983,382.577,284.682z" />
			</g>
            <g>
				<path style="fill:#263238;" d="M363.953,266.274c-1.194,2.72-1.34,8.559,2.8,7.108
					C370.894,271.931,366.006,261.6,363.953,266.274z" />
                <path style="fill:#E4897B;" d="M383.833,272.297c-0.358,7.287-0.196,11.573-3.835,15.322
					c-5.474,5.639-14.522,2.324-16.353-4.944c-1.648-6.542-0.786-17.359,6.32-20.276
					C376.966,259.526,384.191,265.011,383.833,272.297z" />
                <path style="fill:#263238;" d="M372.79,274.361c0.007,0.593-0.302,1.075-0.69,1.076c-0.388,0.001-0.709-0.479-0.717-1.072
					c-0.007-0.593,0.302-1.075,0.69-1.076C372.462,273.288,372.783,273.768,372.79,274.361z" />
                <path style="fill:#263238;" d="M366.074,274.378c0.007,0.593-0.302,1.075-0.69,1.076c-0.388,0.001-0.709-0.479-0.716-1.073
					c-0.007-0.593,0.302-1.075,0.69-1.076C365.746,273.304,366.067,273.784,366.074,274.378z" />
                <path style="fill:#DE5753;" d="M368.213,274.667c0,0-1.344,3.298-2.825,4.901c1.049,0.924,2.83,0.47,2.83,0.47L368.213,274.667z
					" />
                <path style="fill:#263238;" d="M374.834,272.19c-0.12,0.017-0.247-0.03-0.327-0.134c-0.954-1.237-2.237-1.159-2.25-1.158
					c-0.192,0.014-0.361-0.13-0.377-0.322c-0.016-0.191,0.128-0.358,0.319-0.373c0.068-0.005,1.675-0.103,2.858,1.431
					c0.118,0.153,0.091,0.372-0.061,0.488C374.947,272.16,374.891,272.183,374.834,272.19z" />
                <path style="fill:#263238;" d="M363.152,272.078c-0.065,0.009-0.134,0-0.199-0.031c-0.174-0.084-0.249-0.292-0.167-0.465
					c0.823-1.738,2.413-1.949,2.483-1.967c0.191-0.024,0.367,0.111,0.393,0.301c0.026,0.19-0.105,0.364-0.295,0.39
					c-0.067,0.006-1.289,0.184-1.95,1.579C363.366,271.994,363.264,272.063,363.152,272.078z" />
                <path style="fill:#263238;" d="M372.388,266.457c0,0,2.01-1.433,2.922,0.111c0.912,1.544,0.858,5.678,0.858,5.678l0.405-0.73
					c0,0,2.582,9.201,6.335,6.882c3.753-2.319,9.266-11.657,0.501-16.42c0,0-0.931-2.223-6.723-3.315
					c-5.792-1.093-12.791,2.479-13.989,6.306c-1.199,3.827,0.483,5.959,0.483,5.959c0.315-1.387,1.113-2.269,1.113-2.269
					c0.133,1.239,1.444,1.761,1.444,1.761c-0.031-1.51,0.473-2.258,0.473-2.258c0.109,0.818,0.967,1.841,0.967,1.841
					c0.421-3.941,3.1-4.745,3.947-4.713C372.166,265.331,372.388,266.457,372.388,266.457z" />
                <path style="fill:#E4897B;" d="M386.718,278.332c-0.559,1.882-1.939,3.322-3.374,4.057c-2.159,1.106-3.743-0.716-3.566-3.013
					c0.16-2.067,1.476-5.133,3.847-5.286C385.96,273.939,387.357,276.181,386.718,278.332z" />
                <g>
					<path style="fill:#263238;" d="M368.447,282.481c0.719,0.679,1.727,2.089,1.727,2.089c0.144-0.068,0.288-0.137,0.429-0.212
						c1.932-0.975,2.506-2.066,2.556-2.979c0.026-0.499-0.112-0.949-0.269-1.293c-0.177-0.4-0.395-0.644-0.395-0.644
						c-0.715,1.129-2.446,2.177-3.394,2.698C368.706,282.361,368.447,282.481,368.447,282.481z" />
                    <path style="fill:#FFFFFF;" d="M369.101,282.138l0.525,0.603c1.818-0.923,2.973-1.817,3.264-2.656
						c-0.177-0.4-0.395-0.644-0.395-0.644C371.78,280.569,370.049,281.617,369.101,282.138z" />
                    <path style="fill:#A24E3F;" d="M370.603,284.357c1.932-0.975,2.506-2.066,2.556-2.979c-0.645,0.358-1.384,0.861-1.93,1.508
						C370.809,283.379,370.649,283.895,370.603,284.357z" />
				</g>
			</g>
		</g>
	</g>
</g>
    <g id="Character_2">
	<g>
		<g>
			<path style="fill:#407BFF;" d="M194.408,306.183l0.523,5.549c0,0,32.48,4.937,37.679,10.019
				c5.199,5.082,23.653,85.088,23.653,85.088l-7.449,1.025c0,0-25.817-59.016-27.2-67.548c0,0-22.736,0.849-38.255,0.849
				c-15.519,0-17.373-34.983-17.373-34.983H194.408z" />
            <path style="opacity:0.3;fill:#FFFFFF;" d="M256.262,406.835l-7.444,1.033c0,0-10.56-24.124-18.53-43.762
				c-4.506-11.067-8.176-20.707-8.673-23.786c0,0-15.732,0.582-29.954,0.779c-2.882,0.038-5.688,0.066-8.298,0.066
				c-15.526,0-17.375-34.985-17.375-34.985h28.424l0.516,5.548c0,0,32.488,4.938,37.679,10.025
				C237.807,326.831,256.262,406.835,256.262,406.835z" />
            <path style="fill:#263238;" d="M261.99,414.026c-5.01,0-5.672-0.077-8.487-0.172c-2.41-0.086-2.987,0.215-4.924,0.172
				c-1.619-0.035-1.558-1.584-1.059-3.366c0.25-0.895,0.634-2.787,0.979-4.233l7.34-0.533c1.033,1.971,3.363,4.783,6.187,5.163
				C264.72,411.417,263.987,414.026,261.99,414.026z" />
		</g>
        <path style="opacity:0.2;enable-background:new    ;" d="M230.288,364.106c-4.506-11.067-8.176-20.707-8.673-23.786
			c0,0-15.732,0.582-29.954,0.779l-1.545-27.191c0,0,20.086,2.877,33.582,14.509C225.374,329.861,228.702,352.128,230.288,364.106z" />
        <g>
			<path style="fill:#263238;" d="M169.672,338.262h49.127c2.481,0,4.493,2.012,4.493,4.493v3.569H165.18v-3.569
				C165.18,340.273,167.191,338.262,169.672,338.262z" />
            <path style="opacity:0.2;fill:#FFFFFF;" d="M169.672,338.262h49.127c2.481,0,4.493,2.012,4.493,4.493v3.569H165.18v-3.569
				C165.18,340.273,167.191,338.262,169.672,338.262z" />
            <path style="fill:#263238;" d="M221.272,398.58l-22.402-1.953v-29.421h-7.876v29.413l-22.482,1.961
				c-1.981,0.195-3.491,1.86-3.491,3.851v2.984h29.141h1.46h29.141v-2.984C224.762,400.44,223.253,398.775,221.272,398.58z" />
            <path style="fill:#263238;" d="M172.273,409.116c0,2.844-2.305,5.149-5.149,5.149c-2.844,0-5.149-2.305-5.149-5.149
				c0-2.844,2.305-5.149,5.149-5.149C169.967,403.967,172.273,406.272,172.273,409.116z" />
            <circle style="fill:#263238;" cx="222.659" cy="409.116" r="5.149" />
            <path style="fill:#263238;" d="M196.512,373.208h-3.16c-2.051,0-3.714-1.663-3.714-3.714v-25.085h10.588v25.086
				C200.226,371.546,198.563,373.208,196.512,373.208z" />
            <path style="opacity:0.2;fill:#FFFFFF;enable-background:new    ;" d="M196.512,373.208h-3.16c-2.051,0-3.714-1.663-3.714-3.714
				v-25.085h10.588v25.086C200.226,371.546,198.563,373.208,196.512,373.208z" />
            <g>
				<path style="fill:#263238;" d="M164.775,343.232h58.921c0.998,0,1.807,0.809,1.807,1.807v0.416c0,0.998-0.809,1.807-1.807,1.807
					h-58.921c-0.998,0-1.807-0.809-1.807-1.807v-0.417C162.968,344.041,163.777,343.232,164.775,343.232z" />
			</g>
            <path style="opacity:0.2;fill:#FFFFFF;enable-background:new    ;" d="M172.273,409.116c0,2.844-2.305,5.149-5.149,5.149
				c-2.844,0-5.149-2.305-5.149-5.149c0-2.844,2.305-5.149,5.149-5.149C169.967,403.967,172.273,406.272,172.273,409.116z" />
            <circle style="opacity:0.2;fill:#FFFFFF;enable-background:new    ;" cx="222.659"
                cy="409.116" r="5.149" />
		</g>
        <g>
			<path style="fill:#263238;" d="M228.23,296.859l-17.95,0c-5.259,0-9.056-4.725-8.482-10.553l0.766-7.78
				c0.574-5.828,5.302-10.553,10.56-10.553h17.95c5.258,0,9.056,4.725,8.482,10.554l-0.766,7.78
				C238.216,292.134,233.488,296.859,228.23,296.859z" />
            <path style="opacity:0.2;fill:#FFFFFF;" d="M228.23,296.859l-17.95,0c-5.259,0-9.056-4.725-8.482-10.553l0.766-7.78
				c0.574-5.828,5.302-10.553,10.56-10.553h17.95c5.258,0,9.056,4.725,8.482,10.554l-0.766,7.78
				C238.216,292.134,233.488,296.859,228.23,296.859z" />
            <path style="fill:#263238;" d="M226.583,293.069h-10.608c-3.107,0-5.352-2.792-5.013-6.237l0.453-4.598
				c0.339-3.444,3.133-6.236,6.241-6.236h10.608c3.107,0,5.352,2.792,5.013,6.237l-0.453,4.598
				C232.485,290.277,229.691,293.069,226.583,293.069z" />
            <path style="fill:#263238;" d="M218.164,286.209c0,0-2.426,48.648-12.903,57.024h11.205c0,0,9.993-16.573,10.738-57.024H218.164z
				" />
		</g>
        <g>
			<path style="fill:#B97964;" d="M227.184,265.941l1.931-1.039c0.726-0.391,1.597-0.407,2.337-0.042l3.458,1.703
				c1.382,0.681,2.35,1.989,2.595,3.511l0.152,0.942c-3.086,1.943-7.852,1.769-7.852,1.769l-1.364,0.101
				c-1.215,0.089-2.23-0.745-2.333-1.918l-0.236-2.7C225.792,267.335,226.313,266.409,227.184,265.941z" />
            <path style="opacity:0.2;enable-background:new    ;" d="M227.184,265.941l1.931-1.039c0.726-0.391,1.597-0.407,2.337-0.042
				l3.458,1.703c1.382,0.681,2.35,1.989,2.595,3.511l0.152,0.942c-3.086,1.943-7.852,1.769-7.852,1.769l-1.364,0.101
				c-1.215,0.089-2.23-0.745-2.333-1.918l-0.236-2.7C225.792,267.335,226.313,266.409,227.184,265.941z" />
            <path style="fill:#407BFF;" d="M212.976,268.323l-7.009,8.852h-6.655l0.863-12.353
				C205.254,265.788,212.976,268.323,212.976,268.323z" />
            <path style="opacity:0.2;enable-background:new    ;" d="M205.413,277.174h-5.764l3.576-8.852
				C203.226,268.323,205.282,271.43,205.413,277.174z" />
            <path style="fill:#407BFF;" d="M194.844,309.521l-29.315-2.722c0.92-3.116,1.727-6.176,2.412-9.133
				c0.854-3.605,1.539-7.068,2.084-10.297c0.563-3.229,0.986-6.233,1.314-8.946c0.028-0.263,0.066-0.516,0.094-0.77
				c0.047-0.432,0.094-0.854,0.141-1.258c0.282-2.628,0.469-4.919,0.591-6.805c0.244-3.689,0.244-5.82,0.244-5.82
				c16.915-3.182,30.15,1.793,30.15,1.793C206.915,277.841,194.844,309.521,194.844,309.521z" />
            <g>
				<path style="fill:#B97964;" d="M194.74,267.515c0,0-0.001,0.001-0.001,0.003c-1.949,4.048-7.561,4.456-10.066,0.726
					l-1.271-1.893l-1.558-2.319c2.619-1.549,3.642-6.515,3.98-10.776c0,0,0,0,0-0.009c0.103-1.333,0.15-2.6,0.15-3.67l6.58,9.03
					c-0.46,0.986-0.845,2.009-1.023,3.022c-0.085,0.432-0.122,0.864-0.103,1.295C191.483,264.615,192.347,266.229,194.74,267.515z" />
                <path style="opacity:0.2;enable-background:new    ;" d="M192.553,258.607c-0.46,0.986-0.845,2.009-1.023,3.022
					c-1.727,2.215-4.421,4.571-8.129,4.722l-1.558-2.319c2.619-1.549,3.642-6.515,3.98-10.776c0,0,0,0,0-0.009
					c0.103-1.333,0.15-2.6,0.15-3.67L192.553,258.607z" />
			</g>
            <g>
				<path style="fill:#263238;" d="M176.739,243.585c0,0-3.251-1.229-2.294-3.477c0.956-2.248,2.122-2.225,2.122-2.225
					s-1.728-2.994-0.117-6.016c1.611-3.022,5.167-1.78,5.167-1.78s0.014-3.419,3.306-4.035c3.292-0.617,4.676,2.456,4.676,2.456
					s2.244-2.908,5.521-2.107c3.277,0.8,3.944,5.365,3.944,5.365s3.019-1.085,4.553,2.197c1.535,3.281-0.528,5.777-0.528,5.777
					s2.092-0.988,2.786,2.368c0.694,3.356-2.831,6.333-2.831,6.333s1.897,0.232,0.919,2.718c-0.978,2.486-4.069,2.537-4.069,2.537
					s1.195,0.61-1.077,2.654c-2.272,2.044-9.58-0.876-9.58-0.876L176.739,243.585z" />
                <path style="fill:#B97964;" d="M185.681,238.239c-6.985,0.365-9.037,4.222-9.172,11.447c-0.169,9.028,2.16,15.314,10.793,12.936
					C199.025,259.392,197.28,237.632,185.681,238.239z" />
                <path style="fill:#A24E3F;"
                    d="M181.004,249.059c0,0-0.872,1.875-1.881,3.003c0,0,0.648,0.919,1.882,0.694L181.004,249.059z" />
                <g>
					<path style="fill:#263238;" d="M185.249,248.264c0.017,0.575,0.34,1.031,0.723,1.02c0.383-0.011,0.68-0.486,0.663-1.06
						c-0.017-0.575-0.34-1.031-0.723-1.02C185.529,247.215,185.232,247.69,185.249,248.264z" />
                    <path style="fill:#263238;"
                        d="M186.073,247.227l-1.264-0.454C184.809,246.773,185.462,247.807,186.073,247.227z" />
				</g>
                <g>
					<path style="fill:#263238;" d="M178.104,248.351c0.017,0.575,0.34,1.031,0.723,1.02c0.383-0.011,0.68-0.486,0.663-1.06
						c-0.017-0.575-0.34-1.031-0.724-1.02C178.385,247.302,178.088,247.777,178.104,248.351z" />
                    <path style="fill:#263238;"
                        d="M178.928,247.314l-1.264-0.454C177.665,246.86,178.317,247.894,178.928,247.314z" />
				</g>
                <path style="fill:#263238;" d="M188.151,244.632c-0.081,0-0.162-0.032-0.221-0.098c-1.007-1.112-2.793-0.81-2.811-0.804
					c-0.165,0.025-0.316-0.079-0.346-0.24c-0.029-0.161,0.078-0.315,0.239-0.345c0.086-0.017,2.126-0.372,3.359,0.99
					c0.11,0.121,0.101,0.31-0.021,0.42C188.294,244.606,188.223,244.632,188.151,244.632z" />
                <path style="fill:#263238;" d="M177.221,244.425c-0.091,0-0.18-0.041-0.239-0.119c-0.098-0.132-0.07-0.318,0.062-0.416
					c1.599-1.189,2.963-0.782,3.02-0.766c0.157,0.049,0.244,0.216,0.195,0.373c-0.049,0.156-0.213,0.244-0.371,0.195l0,0
					c-0.046-0.014-1.145-0.327-2.49,0.674C177.345,244.406,177.283,244.425,177.221,244.425z" />
                <path style="fill:#263238;" d="M193.93,249.611c0,0-3.566-5.568-3.303-10.024c0,0-14.137-4.93-14.085,9.154
					c0,0-2.005-12.404,9.987-13.31c11.973-0.905,12.86,16.662,6.933,22.22C193.463,257.652,196.139,253.094,193.93,249.611z" />
                <path style="fill:#B97964;" d="M192.867,251.145c-0.012-1.127,1.049-3.091,3.152-2.972c2.177,0.123,3.441,4.512-1.887,5.862
					C193.367,254.229,192.892,253.497,192.867,251.145z" />
                <path style="fill:#263238;" d="M182.693,256.825c-0.361,0-0.596-0.039-0.605-0.04c-0.162-0.028-0.27-0.182-0.242-0.344
					c0.027-0.161,0.183-0.271,0.343-0.242c0.111,0.018,2.74,0.436,3.715-1.979c0.061-0.153,0.235-0.226,0.387-0.164
					c0.152,0.062,0.226,0.234,0.164,0.387C185.61,256.54,183.68,256.825,182.693,256.825z" />
                <path style="fill:#407BFF;" d="M196.497,247.057c-1.662-8.672-14.486-15.942-19.3-5.863c0,0,0.993-3.731,4.474-6.364
					c0,0,13.017-3.714,15.293,11.104L196.497,247.057z" />
			</g>
            <path style="fill:#263238;" d="M189.667,414.026c-5.01,0-5.672-0.077-8.487-0.172c-2.41-0.086-2.987,0.215-4.924,0.172
				c-1.619-0.035-1.558-1.584-1.059-3.366c0.25-0.895,0.635-2.787,0.979-4.233l7.34-0.533c1.033,1.971,3.363,4.783,6.187,5.163
				C192.397,411.417,191.665,414.026,189.667,414.026z" />
            <path style="fill:#407BFF;" d="M165.988,306.183c0,0-10.041,14.869-4.577,27.085s32.826,6.705,32.826,6.705l-18.06,66.454
				l8.645,1.438c0,0,30.629-65.873,31.411-77.104c0.782-11.231-32.289-18.44-32.289-18.44L165.988,306.183z" />
            <path style="opacity:0.3;fill:#FFFFFF;" d="M165.988,306.183c0,0-10.041,14.869-4.577,27.085s32.826,6.705,32.826,6.705
				l-18.06,66.454l8.645,1.438c0,0,30.629-65.873,31.411-77.104c0.782-11.231-32.289-18.44-32.289-18.44L165.988,306.183z" />
            <path style="opacity:0.2;enable-background:new    ;" d="M196.496,272.03c0,0-13.977,9.856-25.063,5.623
				c0.047-0.432,0.094-0.854,0.141-1.258c0.282-2.628,0.469-4.919,0.591-6.805c4.693-2.319,11.124-3.952,11.124-3.952
				S188.967,270.247,196.496,272.03z" />
            <path style="fill:#B97864;" d="M176.947,263.789c6.163,2.971,12.523,6.728,19.236,8.103c3.862-0.254,8.177-1.824,12.061-2.882
				c0.003-0.003,11.624-3.519,11.629-3.522c1.112-0.337,2.285,0.292,2.622,1.403c0.293,0.967-0.146,1.982-0.997,2.451
				c-3.627,1.999-7.293,3.84-11.08,5.518c-4.675,1.92-9.004,4.164-14.278,4.645c-2.01,0.012-3.803-0.361-5.597-0.823
				c-6.279-1.754-11.957-4.373-17.638-7.474C168.217,268.356,172.012,261.392,176.947,263.789L176.947,263.789z" />
            <path style="fill:#407BFF;" d="M173.69,262.679c-5.385,1.279-5.57,10.535-0.619,14.867l11.996-10.129
				C185.067,267.417,180.084,261.16,173.69,262.679z" />
            <g>
				<path style="fill:#B97964;"
                    d="M220.227,265.539l6.654-0.163l-3.021,6.736c0,0-5.946-0.214-5.707-3.272L220.227,265.539z" />
                <polygon style="fill:#B97964;"
                    points="232.593,268.668 228.03,273.578 223.86,272.113 226.881,265.377 				" />
			</g>
		</g>
	</g>
</g>
    <g id="Character_3">
	<g>
		<path style="fill:#DC897C;" d="M321.882,346.506c4.651,9.623,9.132,19.244,12.16,29.547c1.388,6.987,1.643,14.118,2.164,21.066
			c0.359,5.748,0.573,11.495,0.651,17.264l-5.147,0.532c-1.627-8.11-3.158-17.154-4.585-25.339c-0.671-3.701-1.197-7.34-2.13-10.901
			c-3.54-9.169-8.448-18.606-12.52-27.624C312.476,351.052,321.882,346.506,321.882,346.506L321.882,346.506z" />
        <path style="fill:#407BFF;" d="M329.56,359.099l-8.15,3.94l-5.06,2.45l-3.07-7.38l-3.21-7.73l2.71-14.09
			C321.1,339.889,329.56,359.099,329.56,359.099z" />
        <path style="opacity:0.2;" d="M321.409,363.039l-5.06,2.45l-3.07-7.38c0.63-4.18,1.16-7.73,1.16-7.73
			S320.36,355.649,321.409,363.039z" />
        <g>
			<path style="fill:#263238;" d="M296.946,310.703c0.092,0.596,0.483,1.03,0.873,0.97c0.39-0.06,0.631-0.592,0.538-1.188
				c-0.092-0.596-0.483-1.03-0.873-0.97C297.094,309.575,296.853,310.107,296.946,310.703z" />
            <path style="fill:#DE5753;" d="M297.374,311.741c0,0,1.888,3.228,3.638,4.656c-0.902,1.148-2.764,0.976-2.764,0.976
				L297.374,311.741z" />
            <path style="fill:#263238;" d="M294.25,307.732c-0.086-0.004-0.171-0.039-0.236-0.105c-0.137-0.139-0.136-0.364,0.004-0.501
				c1.396-1.376,2.996-1.045,3.065-1.03c0.191,0.042,0.312,0.231,0.27,0.422c-0.042,0.191-0.233,0.311-0.42,0.271l0,0
				c-0.053-0.011-1.305-0.255-2.418,0.842C294.442,307.702,294.346,307.736,294.25,307.732z" />
            <path style="fill:#E4897B;" d="M298.858,319.739c-0.07,0.88-0.25,1.72-0.52,2.52c-0.51,1.49-1.34,2.82-2.39,3.9
				c-1.12,1.15-2.49,2.02-3.98,2.53c-2.75,0.94-5.9,0.65-8.67-1.41c-4.28-3.18-4.84-7.51-6.42-14.76
				c-1.59-7.25,4.73-13.89,12.23-12.12C296.728,302.209,299.408,312.919,298.858,319.739z" />
            <path style="fill:#263238;" d="M279.613,324.351c2.963,1.885,14.335-3.419,12.467-12.351c0,0,4.466-4.887,4.25-10.52
				c-0.215-5.633-3.967-7.952-8.12-6.94c-3.661,0.893-3.649,2.875-3.649,2.875s-17.162,1.212-13.843,8.32
				C263.416,312.986,275.916,321.999,279.613,324.351z" />
            <path style="fill:#E4897B;" d="M289.04,313.391c0.4,1.902,1.559,3.576,2.806,4.597c1.876,1.537,3.394,0.181,3.359-2.025
				c-0.032-1.986-1.046-5.178-3.163-5.865C289.956,309.422,288.583,311.216,289.04,313.391z" />
            <path style="opacity:0.2;" d="M298.338,322.259c-0.51,1.49-1.34,2.82-2.39,3.9c-1.12,1.15-2.49,2.02-3.98,2.53
				c-1.65-0.83-2.92-1.77-2.92-1.77l1.52-3.73C290.568,323.189,295.206,325.474,298.338,322.259z" />
		</g>
        <path style="fill:#E4897B;"
            d="M282.05,333.504l-1.281-8.775c0,0,5.711-3.969,11.686-1.309l8.972,10.849L282.05,333.504z" />
        <path style="fill:#407BFF;" d="M302.5,333.187l-2.088-3.125c0,0-15.158-5.613-21.767,1.574
			C278.645,331.636,293.426,339.456,302.5,333.187z" />
        <path style="opacity:0.2;" d="M302.5,333.187l-2.088-3.125c0,0-15.158-5.613-21.767,1.574
			C278.645,331.636,293.426,339.456,302.5,333.187z" />
        <g>
			<polygon style="fill:#E4897B;" points="244.29,418.22 238.583,414.539 240.77,411.275 246.725,402.395 252.438,406.069 
				245.861,415.882 			" />
            <path style="fill:#263238;" d="M238.973,414.068l7.953-0.076c0.268-0.001,0.501,0.183,0.562,0.444l1.346,5.817
				c0.115,0.521-0.213,1.037-0.734,1.152c-0.07,0.015-0.141,0.023-0.212,0.023c-2.574-0.017-4.449-0.157-7.68-0.127
				c-1.99,0.019-7.993,0.284-10.741,0.311c-2.748,0.026-3.132-2.685-2.01-2.946c5.036-1.147,8.819-2.708,10.421-4.172
				C238.174,414.217,238.567,414.064,238.973,414.068z" />
            <path style="fill:#263238;" d="M240.536,409.061l10.468,2.822l56.78-43.087l-29.13-6.373c-4.273-0.935-8.677,0.885-11.044,4.563
				L240.536,409.061z" />
            <path style="opacity:0.2;" d="M240.536,409.061l10.468,2.822l56.78-43.087l-29.13-6.373c-4.273-0.935-8.677,0.885-11.044,4.563
				L240.536,409.061z" />
		</g>
        <polygon style="fill:#E4897B;" points="209.499,418.431 203.604,415.058 205.615,411.682 211.09,402.499 216.989,405.865
			210.943,416.013 		" />
        <path style="fill:#263238;" d="M203.835,413.934h7.954c0.268,0.001,0.5,0.188,0.558,0.45l1.291,5.83
			c0.111,0.522-0.223,1.035-0.745,1.145c-0.07,0.015-0.141,0.022-0.212,0.021c-2.574-0.042-4.447-0.2-7.679-0.2
			c-1.99,0-7.995,0.208-10.743,0.208c-2.748,0-3.106-2.715-1.982-2.965c5.047-1.099,8.845-2.624,10.46-4.073
			C203.035,414.075,203.428,413.926,203.835,413.934z" />
        <g>
			<path style="fill:#407BFF;" d="M321.48,391.42c-11.961,0.028-33.874,0.078-39.697,0.1c-0.978-3.522-2.265-15.766-6.149-30.917
				c-1.043-4.113-2.29-8.432-3.768-12.862c-1.61-4.813-2.21-6.811-4.434-11.712c0,0,5.318-3.402,11.653-4.488
				c17.574-3.014,33.694,4.743,33.694,4.743S319.752,355.654,321.48,391.42z" />
		</g>
        <path style="opacity:0.2;" d="M275.635,360.603c-1.043-4.113-2.29-8.432-3.768-12.862l2.777-1.119
			C274.645,346.622,278.948,356.45,275.635,360.603z" />
        <path style="fill:#E4897B;"
            d="M258.274,367.403l4.603,2.18l1.765-7.765c0,0-3.68-1.284-6.442,0.592L258.274,367.403z" />
        <polygon style="fill:#E4897B;"
            points="269.488,372.207 269.703,365.136 264.643,361.818 262.877,369.584 		" />
        <path style="fill:#DC897C;" d="M272.643,348.153c-7.677,4.152-16.438,7.959-23.104,13.431c-0.152,0.125-0.102,0.186,0.067-0.392
			c0.002-0.103,0.061-0.543-0.135-1.096c-0.189-0.556-0.58-0.886-0.688-0.916c-0.129-0.047-0.055,0.07,0.128,0.188
			c0.178,0.123,0.464,0.258,0.787,0.397c3.081,1.162,7.355,1.552,10.808,1.983l0.519,5.148c-1.098,0.312-2.113,0.52-3.184,0.728
			c-4.032,0.689-8.147,1.172-12.36-0.213c-3.6-1.115-6.083-5.034-4.929-8.84c2.058-7.313,20.701-16.435,27.537-19.819
			C268.088,338.752,272.643,348.153,272.643,348.153L272.643,348.153z" />
        <path style="fill:#263238;" d="M279.905,383.067l-1.77,4.56c0,0-21.275-26.278-33.048-27.78
			c-11.773-1.502-39.003,48.444-39.003,48.444l10.34,3.132l29.095-26.403c12.034,20.941,26.349,36.302,43.412,36.302
			c6.332,0,12.168,0,16.659,0c18.633,0,18.837-20.788,15.164-38.405L279.905,383.067z" />
        <path style="fill:#407BFF;" d="M267.433,336.03c-6.669,2.441-14.512,9.841-14.512,9.841s6.6,11.437,7.256,11
			c0.656-0.437,14.201-4.325,14.201-4.325s2.762-3.572,0.642-9.633C272.9,336.852,267.433,336.03,267.433,336.03z" />
        <g>
			<path style="fill:#E4897B;"
                d="M334.41,410.931l7.247,0.36l-3.827,7.08c0,0-6.447-0.712-5.94-4.017L334.41,410.931z" />
            <polygon style="fill:#E4897B;"
                points="347.602,415.329 342.245,420.299 337.83,418.37 341.657,411.29 			" />
		</g>
	</g>
</g>
    <g id="Character_1">
	<g>
		<path style="fill:#E9B376;" d="M109.716,339.224c4.864,4.891,9.652,10.384,15.473,14.093c0.043,0.024,0.362,0.197,0.393,0.223
			c-0.123-0.05-0.402-0.097-0.491-0.085c-0.153,0.025,0.085,0.039,0.348-0.01c6.64-1.88,12.811-6.21,18.926-9.531
			c2.273-1.373,4.633,1.706,2.725,3.54c-4.763,4.404-17.591,16.193-24.33,13.726c-4.117-1.515-7.555-4.347-10.799-7.08
			c-3.207-2.777-6.102-5.655-8.93-8.819C99.219,340.749,105.576,334.982,109.716,339.224L109.716,339.224z" />
        <path style="fill:#407BFF;" d="M118.08,346.145c-0.854,6.355-6.017,12.597-6.017,12.597l-1.061-0.704l-5.266-3.492
			c0,0-0.094-0.3-0.244-0.826c-0.15-0.479-0.338-1.145-0.573-1.953c-1.211-4.233-3.389-12.165-3.661-15.46
			C107.792,336.073,110.73,339.18,118.08,346.145z" />
        <path style="opacity:0.7;fill:#FFFFFF;enable-background:new    ;" d="M118.08,346.145c-0.854,6.355-6.017,12.597-6.017,12.597
			l-1.061-0.704l-5.266-3.492c0,0-0.094-0.3-0.244-0.826c-0.15-0.479-0.338-1.145-0.573-1.953
			c-1.211-4.233-3.389-12.165-3.661-15.46C107.792,336.073,110.73,339.18,118.08,346.145z" />
        <path style="opacity:0.2;" d="M111.002,358.038l-5.266-3.492c0,0-0.094-0.3-0.244-0.826c0.169-1.464,0.46-3.06,0.882-4.778
			C106.375,348.942,110.815,352.059,111.002,358.038z" />
        <g>
			<path style="fill:#263238;" d="M104.6,377.498l4.487,7.864c12.026-2.801,50.58-8.682,55.314,4.545
				c5.884,16.438-36.638,29.542-60.172,30.344c-23.534,0.802-44.057-4.805-29.179-39.112L104.6,377.498z" />
            <path style="opacity:0.2;enable-background:new    ;" d="M104.6,377.498l4.487,7.864c12.026-2.801,50.58-8.682,55.314,4.545
				c5.884,16.438-36.638,29.542-60.172,30.344c-23.534,0.802-44.057-4.805-29.179-39.112L104.6,377.498z" />
		</g>
        <path style="fill:#263238;" d="M157.586,413.145c-0.054,0.033-0.123,0.03-0.173-0.009c-0.047-0.033-0.063-0.093-0.041-0.146
			c0.077-0.262,0.856-2.524,1.645-2.762c0.17-0.041,0.349,0.011,0.47,0.137c0.223,0.185,0.33,0.474,0.28,0.76
			c-0.128,0.423-0.386,0.795-0.738,1.063C158.581,412.554,158.098,412.875,157.586,413.145z M157.788,412.71
			c0.733-0.322,1.328-0.895,1.676-1.616c0.041-0.197-0.037-0.399-0.199-0.518c-0.044-0.055-0.118-0.076-0.185-0.054
			c-0.067,0.023-0.128,0.059-0.181,0.105C158.406,411.249,158.03,411.955,157.788,412.71z" />
        <path style="fill:#263238;" d="M157.544,413.174c-0.053,0.02-0.112,0.002-0.146-0.043c-0.073-0.063-1.16-1.435-0.981-2.361
			c0.043-0.231,0.178-0.436,0.375-0.567c0.17-0.163,0.43-0.188,0.627-0.059c0.569,0.401,0.499,2.236,0.22,2.932l-0.02,0.07
			C157.597,413.162,157.571,413.172,157.544,413.174z M156.927,410.485c-0.098,0.085-0.164,0.201-0.189,0.329
			c-0.113,0.585,0.433,1.464,0.728,1.885c0.179-0.784,0.121-2.071-0.212-2.303c-0.036-0.019-0.104-0.073-0.272,0.045
			L156.927,410.485L156.927,410.485z" />
        <path style="fill:#263238;" d="M116.215,417.001c0.031-0.055,0.093-0.085,0.156-0.076c0.056,0.006,0.101,0.052,0.106,0.108
			c0.06,0.266,0.473,2.624-0.102,3.213c-0.129,0.119-0.311,0.16-0.478,0.108c-0.284-0.053-0.518-0.255-0.612-0.529
			c-0.093-0.432-0.048-0.882,0.131-1.287C115.631,417.999,115.898,417.485,116.215,417.001z M116.249,417.479
			c-0.485,0.637-0.728,1.426-0.685,2.226c0.06,0.192,0.226,0.331,0.425,0.356c0.066,0.027,0.141,0.01,0.189-0.042
			c0.048-0.052,0.084-0.113,0.107-0.18C116.416,419.057,116.404,418.258,116.249,417.479z" />
        <polygon style="fill:#EBB376;" points="131.619,405.093 121.938,408.541 117.288,410.197 118.48,415.285 122.983,414.326
			133.982,411.982 		" />
        <path style="fill:#407BFF;" d="M119.748,415.526l-0.815-6.003c-0.045-0.334-0.358-0.565-0.692-0.51l-2.961,0.493
			c0,0-4.031,0.379-4.832,1.412c-2.341,3.02-0.878,16.345,0.682,16.814c0.571,0.172,1.174-0.611,1.423-1.152
			c0.789-1.716,2.178-6.208,2.854-7.631c0.789-1.664,2.954-2.479,3.927-2.771C119.614,416.094,119.788,415.817,119.748,415.526z" />
        <path style="fill:#263238;" d="M116.238,416.955c0.037-0.043,0.098-0.056,0.149-0.033c0.095,0.02,1.709,0.694,2.001,1.591
			c0.074,0.223,0.055,0.468-0.054,0.678c-0.069,0.225-0.285,0.372-0.52,0.355c-0.691-0.075-1.519-1.715-1.612-2.459l-0.016-0.071
			C116.197,416.992,116.215,416.97,116.238,416.955z M118.08,419.009c0.044-0.123,0.046-0.256,0.006-0.379
			c-0.185-0.567-1.088-1.073-1.549-1.298c0.223,0.772,0.896,1.871,1.3,1.912c0.041-0.001,0.127,0.013,0.216-0.172L118.08,419.009
			L118.08,419.009z" />
        <polygon style="opacity:0.2;enable-background:new    ;" points="131.619,405.093 121.938,408.541 122.983,414.326
			133.982,411.982 		" />
        <g>
			<polygon style="fill:#407BFF;"
                points="124.699,415.196 127.484,415.397 125.619,405.817 122.461,407.564 			" />
            <polygon style="opacity:0.6;fill:#FFFFFF;enable-background:new    ;" points="124.699,415.196 127.484,415.397 125.619,405.817
				122.461,407.564 			" />
		</g>
        <path style="opacity:0.2;enable-background:new    ;" d="M84.308,377.971l14.502,16.08c0,0,16.034-0.357,35.502,9.159
			c0,0,20.891-8.629,22.811-15.798c2.513-9.391-48.036-2.05-48.036-2.05L84.308,377.971z" />
        <path style="fill:#407BFF;" d="M104.45,384.428l-29.575-3.422c0.53-2.809,0.891-5.785,1.021-9.25
			c0.132-3.715-0.01-7.989-0.516-13.244c-0.407-4.213-1.047-9.05-1.974-14.732c-0.724-4.49,2.505-8.348,6.938-8.285
			c1.188,0.021,2.438,0.065,3.719,0.15c4.986,0.331,9.074,0.645,13.436,1.551c1.439,0.298,2.928,0.659,4.359,1.022
			c5.135,1.335,8.313,7.788,7.872,13.022c-0.248,2.919-0.135,5.175-1.344,12.068C107.48,369.155,106.409,374.888,104.45,384.428z" />
        <path style="opacity:0.7;fill:#FFFFFF;enable-background:new    ;" d="M104.45,384.428l-29.575-3.422
			c0.53-2.809,0.891-5.785,1.021-9.25c0.132-3.715-0.01-7.989-0.516-13.244c-0.407-4.213-1.047-9.05-1.974-14.732
			c-0.724-4.49,2.505-8.348,6.938-8.285c1.188,0.021,2.438,0.065,3.719,0.15c4.986,0.331,9.074,0.645,13.436,1.551
			c1.439,0.298,2.928,0.659,4.359,1.022c5.135,1.335,8.313,7.788,7.872,13.022c-0.248,2.919-0.135,5.175-1.344,12.068
			C107.48,369.155,106.409,374.888,104.45,384.428z" />
        <path style="opacity:0.2;" d="M75.897,371.756c0.132-3.715-0.01-7.989-0.516-13.244c3.696-4.371,7.2-7.988,7.2-7.988
			S88.383,365.441,75.897,371.756z" />
        <path style="fill:#E9B376;" d="M80.568,348.885c0.34,6.332,0.283,16.18,1.436,22.235c0,0-0.308-0.743-0.308-0.743
			c-0.201-0.29-0.08-0.036,0.129,0.159c0.213,0.219,0.527,0.488,0.861,0.758c4.046,3.01,8.805,5.301,13.31,7.693
			c0,0,5.694,2.935,5.694,2.935c1.116,0.562,1.56,1.929,0.987,3.039c-0.484,0.939-1.539,1.392-2.523,1.157
			c-2.163-0.518-4.244-1.141-6.353-1.775c-5.999-2.025-12.16-3.92-17.324-7.832c-0.62-0.514-1.888-1.731-2.27-3.032
			c-2.309-8.197-2.489-16.115-2.662-24.474C71.765,343.171,80.2,343.058,80.568,348.885L80.568,348.885z" />
        <path style="fill:#EBB376;" d="M109.668,381.557l-1.8-1.302c-0.677-0.49-1.549-0.622-2.34-0.355l-3.7,1.246
			c-1.479,0.498-2.625,1.682-3.076,3.176l-0.279,0.925c2.837,2.364,7.645,2.829,7.645,2.829l1.356,0.284
			c1.207,0.253,2.339-0.449,2.599-1.613l0.598-2.679C110.878,383.143,110.479,382.143,109.668,381.557z" />
        <path style="fill:#407BFF;" d="M77.873,335.896c-5.787,2.069-7.44,7.115-7.559,17.629c3.003,2.723,12.107,2.875,12.107,2.875
			S83.981,340.465,77.873,335.896z" />
        <g>
			<path style="fill:#263238;" d="M147.888,387.346v2.383c0,0.612-0.72,0.862-1.324,0.862H98.946c-0.612,0-1.347-0.25-1.347-0.862
				v-2.383H147.888z" />
            <path style="opacity:0.4;fill:#FFFFFF;enable-background:new    ;" d="M147.888,387.346v2.383c0,0.612-0.72,0.862-1.324,0.862
				H98.946c-0.612,0-1.347-0.25-1.347-0.862v-2.383H147.888z" />
            <path style="opacity:0.2;enable-background:new    ;" d="M147.888,387.346v2.383c0,0.612-0.72,0.862-1.324,0.862h-31.407
				c-0.611,0-1.336-0.25-1.336-0.862v-2.383H147.888z" />
            <path style="fill:#263238;" d="M155.855,362.606l-5.668,25.712c-0.185,0.847-1.009,1.461-1.841,1.461h-30.965
				c-0.825,0-1.354-0.769-1.163-1.616l5.662-25.515c0.191-0.84,1.008-1.258,1.84-1.258h30.966
				C155.517,361.39,156.04,361.766,155.855,362.606z" />
            <path style="opacity:0.4;fill:#FFFFFF;enable-background:new    ;" d="M155.855,362.606l-5.668,25.712
				c-0.185,0.847-1.009,1.461-1.841,1.461h-29.913c-0.832,0-1.355-0.769-1.171-1.616l5.669-25.515
				c0.184-0.84,1.008-1.258,1.84-1.258h29.913C155.517,361.39,156.04,361.766,155.855,362.606z" />
            <path style="opacity:0.2;enable-background:new    ;" d="M140.588,375.674v0.008c0,2.201-2.36,3.99-4.09,3.99
				c-1.73,0-2.756-1.789-2.263-3.99c0.493-2.158,2.215-3.917,3.908-3.983c-0.493,2.201,0.564,3.983,2.286,3.983
				C140.466,375.682,140.588,375.682,140.588,375.674z" />
		</g>
        <g>
			<path style="fill:#EBB376;"
                d="M145.503,348.285l6.654,0.168l-3.015-6.739c0,0-5.946,0.208-5.71,3.267L145.503,348.285z" />
            <polygon style="fill:#EBB376;"
                points="157.872,345.167 153.312,340.253 149.142,341.714 152.156,348.453 			" />
		</g>
        <path style="fill:#EBB376;" d="M82.553,335.563c-0.683-0.048,1.401,8.293,11.493,10.354c10.092,2.061,9.326-7.228,8.531-9.555
			C102.577,336.362,89.301,336.037,82.553,335.563z" />
        <path style="fill:#263238;" d="M85.322,302.91c0,0,5.787-6.421,16.376-3.114c10.59,3.307,10.138,22.219,4.765,29.07
			c0,0-12.13-0.696-25.082,2.345c0,0-5.1-13.709-2.571-21.766C81.339,301.387,85.322,302.91,85.322,302.91z" />
        <g>
			<path style="fill:#EBB376;" d="M87.447,321.763c0.67,4.456,1.192,12.54-1.95,15.099c0,0,4.164-0.142,12.234,6.236
				c2.933-3.319,1.197-4.685,1.197-4.685c-4.772-1.717-4.501-5.309-3.524-8.598L87.447,321.763z" />
            <path style="opacity:0.2;" d="M90.69,325.048l4.709,4.763c-0.234,0.778-0.424,1.573-0.512,2.357
				c-1.83-0.481-4.276-2.811-4.393-4.778C90.437,326.408,90.515,325.481,90.69,325.048z" />
		</g>
        <g>
			<path style="fill:#EBB376;" d="M84.758,312.664c0.506,7.129,0.569,10.149,4.164,13.955c5.408,5.726,13.944,4.012,15.551-3.01
				c1.447-6.321,0.377-16.917-6.547-20.051C91.106,300.47,84.253,305.535,84.758,312.664z" />
            <path style="fill:#263238;" d="M93.535,314.855c0.016,0.6,0.339,1.099,0.72,1.115c0.381,0.016,0.677-0.458,0.66-1.058
				c-0.017-0.6-0.339-1.099-0.72-1.115C93.814,313.781,93.519,314.255,93.535,314.855z" />
            <path style="fill:#263238;" d="M100.968,314.934c0.017,0.6,0.339,1.099,0.72,1.115c0.381,0.016,0.677-0.458,0.66-1.058
				c-0.017-0.6-0.339-1.099-0.72-1.115C101.247,313.86,100.951,314.334,100.968,314.934z" />
            <path style="fill:#263238;"
                d="M101.461,313.902l1.389-0.358C102.85,313.545,102.162,314.641,101.461,313.902z" />
            <path style="fill:#D58745;" d="M98.738,316.159c0,0,1.061,2.625,2.185,3.916c-0.75,0.708-2.068,0.315-2.068,0.315L98.738,316.159
				z" />
            <path style="fill:#263238;" d="M92.336,311.048c0.09,0.012,0.183-0.013,0.255-0.076c1.117-0.992,2.344-0.611,2.358-0.606
				c0.182,0.057,0.369-0.043,0.415-0.228c0.045-0.185-0.067-0.384-0.251-0.444c-0.064-0.02-1.604-0.501-2.99,0.731
				c-0.138,0.123-0.145,0.345-0.016,0.496C92.168,310.994,92.251,311.037,92.336,311.048z" />
            <path style="fill:#263238;" d="M103.902,311.11c0.084,0.022,0.173,0.013,0.25-0.033c0.159-0.095,0.204-0.309,0.101-0.48
				c-1.031-1.706-2.612-1.841-2.68-1.846c-0.189-0.014-0.343,0.132-0.344,0.327c-0.001,0.194,0.152,0.362,0.341,0.377
				c0.062,0.004,1.288,0.127,2.107,1.484C103.732,311.027,103.814,311.086,103.902,311.11z" />
            <path style="fill:#263238;"
                d="M94.028,313.823l1.389-0.358C95.417,313.466,94.73,314.562,94.028,313.823z" />
            <path style="fill:#263238;" d="M86.241,316.936c0,0,5.502-4.316,4.251-11.081c0,0,9.836-3.882,13.716,6.038
				c0,0,0.826-8.483-8.429-10.146c-9.255-1.663-20.198,10.886-9.716,20.393L86.241,316.936z" />
            <path style="fill:#EBB376;" d="M82.486,318.419c0.811,1.477,2.157,2.421,3.403,2.761c1.874,0.511,2.711-1.333,2.107-3.233
				c-0.544-1.711-2.174-4.038-4.015-3.705C82.168,314.57,81.56,316.73,82.486,318.419z" />
            <path style="fill:#263238;" d="M105.289,316.059c-0.088,0-0.17-0.059-0.195-0.147c-3.534-12.431-15.184-9.875-15.302-9.849
				c-0.112,0.028-0.218-0.042-0.244-0.151c-0.025-0.109,0.043-0.218,0.152-0.243c0.121-0.03,12.145-2.667,15.783,10.132
				c0.031,0.108-0.032,0.22-0.139,0.251C105.326,316.056,105.307,316.059,105.289,316.059z" />
            <g>
				<path style="fill:#263238;" d="M99.196,322.462c-0.423,0.874-0.856,2.518-0.856,2.518c-0.156-0.012-0.312-0.025-0.467-0.045
					c-2.112-0.221-3.02-1.021-3.384-1.841c-0.198-0.45-0.228-0.91-0.204-1.28c0.023-0.429,0.138-0.729,0.138-0.729
					c1.05,0.786,3.003,1.144,4.055,1.291C98.917,322.442,99.196,322.462,99.196,322.462z" />
                <path style="fill:#FFFFFF;" d="M98.478,322.375l-0.272,0.736c-1.989-0.213-3.361-0.63-3.921-1.298
					c0.023-0.429,0.138-0.729,0.138-0.729C95.473,321.871,97.426,322.228,98.478,322.375z" />
                <path style="fill:#DE5753;" d="M97.873,324.935c-2.112-0.221-3.02-1.021-3.384-1.841c0.717,0.103,1.57,0.307,2.297,0.71
					C97.343,324.11,97.67,324.527,97.873,324.935z" />
			</g>
		</g>
        <path style="fill:#263238;" d="M97.529,355.783c-0.065,0-0.128-0.026-0.173-0.076c-8.955-9.755-11.709-19.786-11.736-19.887
			c-0.034-0.125,0.041-0.254,0.166-0.287c0.124-0.037,0.254,0.041,0.287,0.166c0.026,0.098,2.7,9.819,11.353,19.389
			c0.6-2.014,3.096-11.501-0.653-18.778c-0.06-0.115-0.014-0.257,0.101-0.316c0.113-0.059,0.256-0.015,0.316,0.102
			c4.288,8.322,0.599,19.419,0.561,19.529c-0.027,0.079-0.093,0.138-0.174,0.154C97.562,355.782,97.545,355.783,97.529,355.783z" />
        <path style="fill:#FFFFFF;" d="M97.835,355.36l0.764,0.972c0.137,0.174,0.138,0.419,0.004,0.594l-0.771,1.005
			c-0.186,0.242-0.547,0.254-0.749,0.024l-0.719-0.82c-0.141-0.161-0.16-0.395-0.046-0.577l0.726-1.157
			C97.222,355.118,97.628,355.097,97.835,355.36z" />
        <path style="opacity:0.7;fill:#FFFFFF;enable-background:new    ;" d="M77.873,335.896c-5.787,2.069-7.44,7.115-7.559,17.629
			c3.003,2.723,12.107,2.875,12.107,2.875S83.981,340.465,77.873,335.896z" />
        <polygon style="fill:#EBB376;" points="138.343,416.109 148.484,417.777 153.354,418.58 154.774,413.549 150.369,412.21
			139.611,408.936 		" />
        <path style="fill:#407BFF;" d="M153.781,412.725l-2.193,5.648c-0.122,0.315,0.04,0.669,0.358,0.782l2.83,1.002
			c0,0,3.71,1.62,4.912,1.103c3.51-1.509,8.681-13.878,7.543-15.043c-0.416-0.426-1.324-0.032-1.802,0.32
			c-1.521,1.12-4.911,4.378-6.191,5.296c-1.497,1.074-3.785,0.74-4.778,0.524C154.173,412.294,153.887,412.452,153.781,412.725z" />
        <polygon style="opacity:0.2;enable-background:new    ;" points="138.343,416.109 148.484,417.777 150.369,412.21
			139.611,408.936 		" />
        <path style="fill:#263238;" d="M148.623,411.159c0,0-41.346-23.243-55.612-22.582c-14.266,0.661-16.325,13.239-10.439,21.111
			c5.886,7.872,16.755,9.789,16.755,9.789s-7.4-10.458-6.33-13.4c1.069-2.942,5.257,1.163,5.257,1.163s26.011,8.4,48.765,10.328
			L148.623,411.159z" />
        <g>
			<polygon style="fill:#407BFF;"
                points="149.289,410.519 146.949,408.947 143.943,418.183 147.553,418.183 			" />
            <polygon style="opacity:0.6;fill:#FFFFFF;enable-background:new    ;" points="149.289,410.519 146.949,408.947 143.943,418.183
				147.553,418.183 			" />
		</g>
	</g>
</g>
</svg>
